solid DispenserMotorMount
facet normal -1.8039140596009911e-12 -0.13052619222005363 0.9914448613738103
  outer loop
    vertex 40.007839867564485 59.392676206843504 26.278517870878975
    vertex 25.000000000016854 61.075000000009865 26.499999999972726
    vertex 25.00000000001726 59.39267620684348 26.27851787085167
  endloop
endfacet
facet normal -1.8039140596009911e-12 -0.13052619222005363 0.9914448613738103
  outer loop
    vertex 25.000000000016854 61.075000000009865 26.499999999972726
    vertex 40.007839867564485 59.392676206843504 26.278517870878975
    vertex 40.0078398675641 61.07500000000989 26.500000000000036
  endloop
endfacet
facet normal -6.961813841327226e-13 -0.9238795325112857 0.38268343236509234
  outer loop
    vertex 40.00783986757288 54.79648212913092 21.68232379316643
    vertex 25.00000000002277 55.445834875411016 23.249999999972733
    vertex 25.000000000025622 54.79648212913092 21.68232379313912
  endloop
endfacet
facet normal -6.961813841327226e-13 -0.9238795325112857 0.38268343236509234
  outer loop
    vertex 25.00000000002277 55.445834875411016 23.249999999972733
    vertex 40.00783986757288 54.79648212913092 21.68232379316643
    vertex 40.00783986757 55.44583487541102 23.250000000000043
  endloop
endfacet
facet normal 2.375604149737738e-13 -0.9914448613738105 -0.13052619222005163
  outer loop
    vertex 40.00783986757899 54.79648212913092 18.317676206833656
    vertex 25.00000000002868 54.575000000009865 19.99999999997273
    vertex 25.000000000031743 54.79648212913092 18.317676206806347
  endloop
endfacet
facet normal 2.375604149737738e-13 -0.9914448613738105 -0.13052619222005163
  outer loop
    vertex 25.00000000002868 54.575000000009865 19.99999999997273
    vertex 40.00783986757899 54.79648212913092 18.317676206833656
    vertex 40.00783986757592 54.575000000009865 20.000000000000036
  endloop
endfacet
facet normal -1.6817745180822488e-12 0.3826834323650878 0.9238795325112875
  outer loop
    vertex 40.007839867564485 62.75732379317628 26.278517870878975
    vertex 25.00000000001844 64.32500000000987 25.62916512457158
    vertex 25.00000000001726 62.75732379317625 26.27851787085167
  endloop
endfacet
facet normal -1.6817745180822488e-12 0.3826834323650878 0.9238795325112875
  outer loop
    vertex 25.00000000001844 64.32500000000987 25.62916512457158
    vertex 40.007839867564485 62.75732379317628 26.278517870878975
    vertex 40.00783986756568 64.3250000000099 25.629165124598888
  endloop
endfacet
facet normal 1.6806088861137986e-12 0.38268343236508673 -0.9238795325112881
  outer loop
    vertex 25.000000000038927 64.32500000000987 14.370834875373877
    vertex 40.00783986758735 62.75732379317627 13.721482129121096
    vertex 25.000000000040107 62.75732379317625 13.721482129093788
  endloop
endfacet
facet normal 1.6806088861137986e-12 0.38268343236508673 -0.9238795325112881
  outer loop
    vertex 40.00783986758735 62.75732379317627 13.721482129121096
    vertex 25.000000000038927 64.32500000000987 14.370834875373877
    vertex 40.007839867586185 64.3250000000099 14.370834875401185
  endloop
endfacet
facet normal 2.3555783240848237e-13 0.9914448613738103 -0.13052619222005288
  outer loop
    vertex 40.00783986757592 67.5750000000099 20.000000000000036
    vertex 25.000000000031743 67.35351787088881 18.317676206806347
    vertex 25.00000000002868 67.57500000000987 19.99999999997273
  endloop
endfacet
facet normal 2.3555783240848237e-13 0.9914448613738103 -0.13052619222005288
  outer loop
    vertex 25.000000000031743 67.35351787088881 18.317676206806347
    vertex 40.00783986757592 67.5750000000099 20.000000000000036
    vertex 40.00783986757899 67.35351787088884 18.317676206833656
  endloop
endfacet
facet normal -2.394459954826715e-13 0.9914448613738103 0.13052619222005268
  outer loop
    vertex 40.00783986757288 67.35351787088884 21.682323793166418
    vertex 25.00000000002868 67.57500000000987 19.99999999997273
    vertex 25.000000000025622 67.35351787088881 21.68232379313911
  endloop
endfacet
facet normal -2.394459954826715e-13 0.9914448613738103 0.13052619222005268
  outer loop
    vertex 25.00000000002868 67.57500000000987 19.99999999997273
    vertex 40.00783986757288 67.35351787088884 21.682323793166418
    vertex 40.00783986757592 67.5750000000099 20.000000000000036
  endloop
endfacet
facet normal 1.4424767739199072e-12 0.6087614290087199 -0.7933533402912358
  outer loop
    vertex 25.000000000037044 65.67119407772242 15.403805922260169
    vertex 40.007839867586185 64.3250000000099 14.370834875401185
    vertex 25.000000000038927 64.32500000000987 14.370834875373877
  endloop
endfacet
facet normal 1.4424767739199072e-12 0.6087614290087199 -0.7933533402912358
  outer loop
    vertex 40.007839867586185 64.3250000000099 14.370834875401185
    vertex 25.000000000037044 65.67119407772242 15.403805922260169
    vertex 40.00783986758429 65.67119407772246 15.403805922287477
  endloop
endfacet
facet normal -2.375136141512139e-13 -0.9914448613738105 0.1305261922200512
  outer loop
    vertex 40.00783986757592 54.575000000009865 20.000000000000036
    vertex 25.000000000025622 54.79648212913092 21.68232379313912
    vertex 25.00000000002868 54.575000000009865 19.99999999997273
  endloop
endfacet
facet normal -2.375136141512139e-13 -0.9914448613738105 0.1305261922200512
  outer loop
    vertex 25.000000000025622 54.79648212913092 21.68232379313912
    vertex 40.00783986757592 54.575000000009865 20.000000000000036
    vertex 40.00783986757288 54.79648212913092 21.68232379316643
  endloop
endfacet
facet normal 1.8039354625158236e-12 0.13052619222005357 -0.9914448613738103
  outer loop
    vertex 25.000000000040107 62.75732379317625 13.721482129093788
    vertex 40.007839867587776 61.07500000000989 13.500000000000037
    vertex 25.00000000004051 61.075000000009865 13.49999999997273
  endloop
endfacet
facet normal 1.8039354625158236e-12 0.13052619222005357 -0.9914448613738103
  outer loop
    vertex 40.007839867587776 61.07500000000989 13.500000000000037
    vertex 25.000000000040107 62.75732379317625 13.721482129093788
    vertex 40.00783986758735 62.75732379317627 13.721482129121096
  endloop
endfacet
facet normal 1.4441949069155568e-12 -0.6087614290087202 -0.7933533402912355
  outer loop
    vertex 25.000000000038927 57.82500000000986 14.370834875373877
    vertex 40.00783986758429 56.47880592229732 15.403805922287477
    vertex 25.000000000037044 56.478805922297305 15.403805922260169
  endloop
endfacet
facet normal 1.4441949069155568e-12 -0.6087614290087202 -0.7933533402912355
  outer loop
    vertex 40.00783986758429 56.47880592229732 15.403805922287477
    vertex 25.000000000038927 57.82500000000986 14.370834875373877
    vertex 40.007839867586185 57.82500000000988 14.370834875401185
  endloop
endfacet
facet normal -1.6805632496256367e-12 -0.3826834323650878 0.9238795325112876
  outer loop
    vertex 40.00783986756568 57.825000000009894 25.629165124598888
    vertex 25.00000000001726 59.39267620684348 26.27851787085167
    vertex 25.00000000001844 57.82500000000987 25.62916512457158
  endloop
endfacet
facet normal -1.6805632496256367e-12 -0.3826834323650878 0.9238795325112876
  outer loop
    vertex 25.00000000001726 59.39267620684348 26.27851787085167
    vertex 40.00783986756568 57.825000000009894 25.629165124598888
    vertex 40.007839867564485 59.392676206843504 26.278517870878975
  endloop
endfacet
facet normal -1.8042928263362087e-12 0.1305261922200531 0.9914448613738103
  outer loop
    vertex 40.0078398675641 61.07500000000989 26.500000000000036
    vertex 25.00000000001726 62.75732379317625 26.27851787085167
    vertex 25.000000000016854 61.075000000009865 26.499999999972726
  endloop
endfacet
facet normal -1.8042928263362087e-12 0.1305261922200531 0.9914448613738103
  outer loop
    vertex 25.00000000001726 62.75732379317625 26.27851787085167
    vertex 40.0078398675641 61.07500000000989 26.500000000000036
    vertex 40.007839867564485 62.75732379317628 26.278517870878975
  endloop
endfacet
facet normal -1.4430363770963091e-12 -0.6087614290087184 0.7933533402912368
  outer loop
    vertex 40.00783986756756 56.47880592229732 24.596194077712596
    vertex 25.00000000001844 57.82500000000987 25.62916512457158
    vertex 25.000000000020304 56.478805922297305 24.596194077685286
  endloop
endfacet
facet normal -1.4430363770963091e-12 -0.6087614290087184 0.7933533402912368
  outer loop
    vertex 25.00000000001844 57.82500000000987 25.62916512457158
    vertex 40.00783986756756 56.47880592229732 24.596194077712596
    vertex 40.00783986756568 57.825000000009894 25.629165124598888
  endloop
endfacet
facet normal 1.681599578210964e-12 -0.38268343236508806 -0.9238795325112875
  outer loop
    vertex 25.000000000040107 59.392676206843475 13.721482129093788
    vertex 40.007839867586185 57.82500000000988 14.370834875401185
    vertex 25.000000000038927 57.82500000000986 14.370834875373877
  endloop
endfacet
facet normal 1.681599578210964e-12 -0.38268343236508806 -0.9238795325112875
  outer loop
    vertex 40.007839867586185 57.82500000000988 14.370834875401185
    vertex 25.000000000040107 59.392676206843475 13.721482129093788
    vertex 40.00783986758735 59.3926762068435 13.721482129121096
  endloop
endfacet
facet normal 1.107965029230248e-12 -0.7933533402912345 -0.6087614290087215
  outer loop
    vertex 25.000000000037044 56.478805922297305 15.403805922260169
    vertex 40.00783986758182 55.445834875411016 16.750000000000043
    vertex 25.000000000034582 55.445834875411016 16.749999999972733
  endloop
endfacet
facet normal 1.107965029230248e-12 -0.7933533402912345 -0.6087614290087215
  outer loop
    vertex 40.00783986758182 55.445834875411016 16.750000000000043
    vertex 25.000000000037044 56.478805922297305 15.403805922260169
    vertex 40.00783986758429 56.47880592229732 15.403805922287477
  endloop
endfacet
facet normal -1.1093999547285536e-12 0.7933533402912365 0.6087614290087189
  outer loop
    vertex 40.00783986756756 65.67119407772246 24.596194077712596
    vertex 25.00000000002277 66.70416512460872 23.249999999972722
    vertex 25.000000000020304 65.67119407772242 24.596194077685286
  endloop
endfacet
facet normal -1.1093999547285536e-12 0.7933533402912365 0.6087614290087189
  outer loop
    vertex 25.00000000002277 66.70416512460872 23.249999999972722
    vertex 40.00783986756756 65.67119407772246 24.596194077712596
    vertex 40.00783986757 66.70416512460875 23.250000000000032
  endloop
endfacet
facet normal 1.1060629645243841e-12 0.7933533402912342 -0.608761429008722
  outer loop
    vertex 40.00783986758182 66.70416512460875 16.750000000000032
    vertex 25.000000000037044 65.67119407772242 15.403805922260169
    vertex 25.000000000034582 66.70416512460872 16.749999999972722
  endloop
endfacet
facet normal 1.1060629645243841e-12 0.7933533402912342 -0.608761429008722
  outer loop
    vertex 25.000000000037044 65.67119407772242 15.403805922260169
    vertex 40.00783986758182 66.70416512460875 16.750000000000032
    vertex 40.00783986758429 65.67119407772246 15.403805922287477
  endloop
endfacet
facet normal 1.8042603976773716e-12 -0.13052619222005293 -0.9914448613738103
  outer loop
    vertex 25.00000000004051 61.075000000009865 13.49999999997273
    vertex 40.00783986758735 59.3926762068435 13.721482129121096
    vertex 25.000000000040107 59.392676206843475 13.721482129093788
  endloop
endfacet
facet normal 1.8042603976773716e-12 -0.13052619222005293 -0.9914448613738103
  outer loop
    vertex 40.00783986758735 59.3926762068435 13.721482129121096
    vertex 25.00000000004051 61.075000000009865 13.49999999997273
    vertex 40.007839867587776 61.07500000000989 13.500000000000037
  endloop
endfacet
facet normal -1.4447363607997493e-12 0.6087614290087202 0.7933533402912355
  outer loop
    vertex 40.00783986756568 64.3250000000099 25.629165124598888
    vertex 25.000000000020304 65.67119407772242 24.596194077685286
    vertex 25.00000000001844 64.32500000000987 25.62916512457158
  endloop
endfacet
facet normal -1.4447363607997493e-12 0.6087614290087202 0.7933533402912355
  outer loop
    vertex 25.000000000020304 65.67119407772242 24.596194077685286
    vertex 40.00783986756568 64.3250000000099 25.629165124598888
    vertex 40.00783986756756 65.67119407772246 24.596194077712596
  endloop
endfacet
facet normal -6.981771806080923e-13 0.9238795325112871 0.38268343236508906
  outer loop
    vertex 40.00783986757 66.70416512460875 23.250000000000032
    vertex 25.000000000025622 67.35351787088881 21.68232379313911
    vertex 25.00000000002277 66.70416512460872 23.249999999972722
  endloop
endfacet
facet normal -6.981771806080923e-13 0.9238795325112871 0.38268343236508906
  outer loop
    vertex 25.000000000025622 67.35351787088881 21.68232379313911
    vertex 40.00783986757 66.70416512460875 23.250000000000032
    vertex 40.00783986757288 67.35351787088884 21.682323793166418
  endloop
endfacet
facet normal 6.963546821590426e-13 -0.9238795325112873 -0.38268343236508884
  outer loop
    vertex 40.00783986758182 55.445834875411016 16.750000000000043
    vertex 25.000000000031743 54.79648212913092 18.317676206806347
    vertex 25.000000000034582 55.445834875411016 16.749999999972733
  endloop
endfacet
facet normal 6.963546821590426e-13 -0.9238795325112873 -0.38268343236508884
  outer loop
    vertex 25.000000000031743 54.79648212913092 18.317676206806347
    vertex 40.00783986758182 55.445834875411016 16.750000000000043
    vertex 40.00783986757899 54.79648212913092 18.317676206833656
  endloop
endfacet
facet normal 6.944885722861458e-13 0.9238795325112881 -0.3826834323650868
  outer loop
    vertex 25.000000000031743 67.35351787088881 18.317676206806347
    vertex 40.00783986758182 66.70416512460875 16.750000000000032
    vertex 25.000000000034582 66.70416512460872 16.749999999972722
  endloop
endfacet
facet normal 6.944885722861458e-13 0.9238795325112881 -0.3826834323650868
  outer loop
    vertex 40.00783986758182 66.70416512460875 16.750000000000032
    vertex 25.000000000031743 67.35351787088881 18.317676206806347
    vertex 40.00783986757899 67.35351787088884 18.317676206833656
  endloop
endfacet
facet normal -1.1074427005804527e-12 -0.7933533402912337 0.6087614290087225
  outer loop
    vertex 25.00000000002277 55.445834875411016 23.249999999972733
    vertex 40.00783986756756 56.47880592229732 24.596194077712596
    vertex 25.000000000020304 56.478805922297305 24.596194077685286
  endloop
endfacet
facet normal -1.1074427005804527e-12 -0.7933533402912337 0.6087614290087225
  outer loop
    vertex 40.00783986756756 56.47880592229732 24.596194077712596
    vertex 25.00000000002277 55.445834875411016 23.249999999972733
    vertex 40.00783986757 55.44583487541102 23.250000000000043
  endloop
endfacet
facet normal -1.0 -6.978243158898817e-28 -1.8197716257971074e-12
  outer loop
    vertex 25.00000000001726 62.75732379317625 26.27851787085167
    vertex 25.00000000001726 59.39267620684348 26.27851787085167
    vertex 25.000000000016854 61.075000000009865 26.499999999972726
  endloop
endfacet
facet normal -1.0 -6.978243158898817e-28 -1.8197716257971074e-12
  outer loop
    vertex 25.00000000001726 59.39267620684348 26.27851787085167
    vertex 25.00000000001726 62.75732379317625 26.27851787085167
    vertex 25.00000000001844 64.32500000000987 25.62916512457158
  endloop
endfacet
facet normal -1.0 -6.978243158898817e-28 -1.8197716257971074e-12
  outer loop
    vertex 25.00000000001726 59.39267620684348 26.27851787085167
    vertex 25.00000000001844 64.32500000000987 25.62916512457158
    vertex 25.00000000001844 57.82500000000987 25.62916512457158
  endloop
endfacet
facet normal -1.0 -6.978243158898817e-28 -1.8197716257971074e-12
  outer loop
    vertex 25.00000000001844 57.82500000000987 25.62916512457158
    vertex 25.00000000001844 64.32500000000987 25.62916512457158
    vertex 25.000000000020304 65.67119407772242 24.596194077685286
  endloop
endfacet
facet normal -1.0 -6.978243158898817e-28 -1.8197716257971074e-12
  outer loop
    vertex 25.00000000001844 57.82500000000987 25.62916512457158
    vertex 25.000000000020304 65.67119407772242 24.596194077685286
    vertex 25.000000000020304 56.478805922297305 24.596194077685286
  endloop
endfacet
facet normal -1.0 -6.978243158898817e-28 -1.8197716257971074e-12
  outer loop
    vertex 25.000000000020304 56.478805922297305 24.596194077685286
    vertex 25.000000000020304 65.67119407772242 24.596194077685286
    vertex 25.000000000020854 61.075000000009865 24.308628960552873
  endloop
endfacet
facet normal -1.0 -6.978243158898817e-28 -1.8197716257971074e-12
  outer loop
    vertex 25.000000000020854 61.075000000009865 24.308628960552873
    vertex 25.000000000020304 65.67119407772242 24.596194077685286
    vertex 25.0000000000211 62.19015523328829 24.161815988894116
  endloop
endfacet
facet normal -1.0 -6.978243158898817e-28 -1.8197716257971074e-12
  outer loop
    vertex 25.0000000000211 62.19015523328829 24.161815988894116
    vertex 25.000000000020304 65.67119407772242 24.596194077685286
    vertex 25.00000000002277 66.70416512460872 23.249999999972722
  endloop
endfacet
facet normal -1.0 -6.978243158898817e-28 -1.8197716257971074e-12
  outer loop
    vertex 25.0000000000211 62.19015523328829 24.161815988894116
    vertex 25.00000000002277 66.70416512460872 23.249999999972722
    vertex 25.00000000002191 63.229314480299934 23.731382135316476
  endloop
endfacet
facet normal -1.0 -6.978243158898817e-28 -1.8197716257971074e-12
  outer loop
    vertex 25.00000000002191 63.229314480299934 23.731382135316476
    vertex 25.00000000002277 66.70416512460872 23.249999999972722
    vertex 25.000000000022787 63.87500000000986 23.23593021029583
  endloop
endfacet
facet normal -1.0 -6.978243158898817e-28 -1.8197716257971074e-12
  outer loop
    vertex 25.000000000022787 63.87500000000986 23.23593021029583
    vertex 25.00000000002277 66.70416512460872 23.249999999972722
    vertex 25.000000000025622 67.35351787088881 21.68232379313911
  endloop
endfacet
facet normal -1.0 -6.978243158898817e-28 -1.8197716257971074e-12
  outer loop
    vertex 25.000000000022787 63.87500000000986 23.23593021029583
    vertex 25.000000000025622 67.35351787088881 21.68232379313911
    vertex 25.00000000003457 63.87500000000986 16.764069789649625
  endloop
endfacet
facet normal -1.0 -6.978243158898817e-28 -1.8197716257971074e-12
  outer loop
    vertex 25.00000000003457 63.87500000000986 16.764069789649625
    vertex 25.000000000025622 67.35351787088881 21.68232379313911
    vertex 25.00000000002868 67.57500000000987 19.99999999997273
  endloop
endfacet
facet normal -1.0 -6.978243158898817e-28 -1.8197716257971074e-12
  outer loop
    vertex 25.00000000003457 63.87500000000986 16.764069789649625
    vertex 25.00000000002868 67.57500000000987 19.99999999997273
    vertex 25.000000000031743 67.35351787088881 18.317676206806347
  endloop
endfacet
facet normal -1.0 -6.978243158898817e-28 -1.8197716257971074e-12
  outer loop
    vertex 25.00000000003457 63.87500000000986 16.764069789649625
    vertex 25.000000000031743 67.35351787088881 18.317676206806347
    vertex 25.000000000034582 66.70416512460872 16.749999999972722
  endloop
endfacet
facet normal -1.0 -6.978243158898817e-28 -1.8197716257971074e-12
  outer loop
    vertex 25.00000000003457 63.87500000000986 16.764069789649625
    vertex 25.000000000034582 66.70416512460872 16.749999999972722
    vertex 25.000000000035453 63.229314480299934 16.26861786462898
  endloop
endfacet
facet normal -1.0 -6.978243158898817e-28 -1.8197716257971074e-12
  outer loop
    vertex 25.000000000035453 63.229314480299934 16.26861786462898
    vertex 25.000000000034582 66.70416512460872 16.749999999972722
    vertex 25.000000000037044 65.67119407772242 15.403805922260169
  endloop
endfacet
facet normal -1.0 -6.978243158898817e-28 -1.8197716257971074e-12
  outer loop
    vertex 25.000000000035453 63.229314480299934 16.26861786462898
    vertex 25.000000000037044 65.67119407772242 15.403805922260169
    vertex 25.000000000036263 62.19015523328829 15.838184011051341
  endloop
endfacet
facet normal -1.0 -6.978243158898817e-28 -1.8197716257971074e-12
  outer loop
    vertex 25.000000000036263 62.19015523328829 15.838184011051341
    vertex 25.000000000037044 65.67119407772242 15.403805922260169
    vertex 25.000000000036508 61.075000000009865 15.691371039392582
  endloop
endfacet
facet normal -1.0 -6.978243158898817e-28 -1.8197716257971074e-12
  outer loop
    vertex 25.000000000020304 56.478805922297305 24.596194077685286
    vertex 25.0000000000211 59.95984476673144 24.161815988894116
    vertex 25.00000000002277 55.445834875411016 23.249999999972733
  endloop
endfacet
facet normal -1.0 -6.978243158898817e-28 -1.8197716257971074e-12
  outer loop
    vertex 25.0000000000211 59.95984476673144 24.161815988894116
    vertex 25.000000000020304 56.478805922297305 24.596194077685286
    vertex 25.000000000020854 61.075000000009865 24.308628960552873
  endloop
endfacet
facet normal -1.0 -6.978243158898817e-28 -1.8197716257971074e-12
  outer loop
    vertex 25.00000000002277 55.445834875411016 23.249999999972733
    vertex 25.0000000000211 59.95984476673144 24.161815988894116
    vertex 25.0000000000219 58.92068551971978 23.731382135316476
  endloop
endfacet
facet normal -1.0 -6.978243158898817e-28 -1.8197716257971074e-12
  outer loop
    vertex 25.00000000002277 55.445834875411016 23.249999999972733
    vertex 25.0000000000219 58.92068551971978 23.731382135316476
    vertex 25.00000000002313 58.028339244366904 23.046660755615694
  endloop
endfacet
facet normal -1.0 -6.978243158898817e-28 -1.8197716257971074e-12
  outer loop
    vertex 25.00000000002277 55.445834875411016 23.249999999972733
    vertex 25.00000000002313 58.028339244366904 23.046660755615694
    vertex 25.000000000025622 54.79648212913092 21.68232379313912
  endloop
endfacet
facet normal -1.0 -6.978243158898817e-28 -1.8197716257971074e-12
  outer loop
    vertex 25.000000000025622 54.79648212913092 21.68232379313912
    vertex 25.00000000002313 58.028339244366904 23.046660755615694
    vertex 25.000000000024755 57.34361786466612 22.154314480262805
  endloop
endfacet
facet normal -1.0 -6.978243158898817e-28 -1.8197716257971074e-12
  outer loop
    vertex 25.000000000025622 54.79648212913092 21.68232379313912
    vertex 25.000000000024755 57.34361786466612 22.154314480262805
    vertex 25.00000000002666 56.91318401108849 21.115155233251155
  endloop
endfacet
facet normal -1.0 -6.978243158898817e-28 -1.8197716257971074e-12
  outer loop
    vertex 25.000000000025622 54.79648212913092 21.68232379313912
    vertex 25.00000000002666 56.91318401108849 21.115155233251155
    vertex 25.00000000002868 54.575000000009865 19.99999999997273
  endloop
endfacet
facet normal -1.0 -6.978243158898817e-28 -1.8197716257971074e-12
  outer loop
    vertex 25.00000000002868 54.575000000009865 19.99999999997273
    vertex 25.00000000002666 56.91318401108849 21.115155233251155
    vertex 25.00000000002868 56.76637103942972 19.999999999972733
  endloop
endfacet
facet normal -1.0 -6.978243158898817e-28 -1.8197716257971074e-12
  outer loop
    vertex 25.00000000002868 54.575000000009865 19.99999999997273
    vertex 25.00000000002868 56.76637103942972 19.999999999972733
    vertex 25.000000000030703 56.913184011088475 18.884844766694304
  endloop
endfacet
facet normal -1.0 -6.978243158898817e-28 -1.8197716257971074e-12
  outer loop
    vertex 25.00000000002868 54.575000000009865 19.99999999997273
    vertex 25.000000000030703 56.913184011088475 18.884844766694304
    vertex 25.000000000031743 54.79648212913092 18.317676206806347
  endloop
endfacet
facet normal -1.0 -6.978243158898817e-28 -1.8197716257971074e-12
  outer loop
    vertex 25.000000000031743 54.79648212913092 18.317676206806347
    vertex 25.000000000030703 56.913184011088475 18.884844766694304
    vertex 25.000000000032603 57.34361786466612 17.845685519682657
  endloop
endfacet
facet normal -1.0 -6.978243158898817e-28 -1.8197716257971074e-12
  outer loop
    vertex 25.000000000031743 54.79648212913092 18.317676206806347
    vertex 25.000000000032603 57.34361786466612 17.845685519682657
    vertex 25.000000000034582 55.445834875411016 16.749999999972733
  endloop
endfacet
facet normal -1.0 -6.978243158898817e-28 -1.8197716257971074e-12
  outer loop
    vertex 25.000000000034582 55.445834875411016 16.749999999972733
    vertex 25.000000000032603 57.34361786466612 17.845685519682657
    vertex 25.00000000003423 58.02833924436689 16.95333924432976
  endloop
endfacet
facet normal -1.0 -6.978243158898817e-28 -1.8197716257971074e-12
  outer loop
    vertex 25.000000000034582 55.445834875411016 16.749999999972733
    vertex 25.00000000003423 58.02833924436689 16.95333924432976
    vertex 25.000000000035463 58.9206855197198 16.26861786462898
  endloop
endfacet
facet normal -1.0 -6.978243158898817e-28 -1.8197716257971074e-12
  outer loop
    vertex 25.000000000034582 55.445834875411016 16.749999999972733
    vertex 25.000000000035463 58.9206855197198 16.26861786462898
    vertex 25.000000000037044 56.478805922297305 15.403805922260169
  endloop
endfacet
facet normal -1.0 -6.978243158898817e-28 -1.8197716257971074e-12
  outer loop
    vertex 25.000000000037044 56.478805922297305 15.403805922260169
    vertex 25.000000000035463 58.9206855197198 16.26861786462898
    vertex 25.000000000036263 59.95984476673144 15.838184011051341
  endloop
endfacet
facet normal -1.0 -6.978243158898817e-28 -1.8197716257971074e-12
  outer loop
    vertex 25.000000000037044 56.478805922297305 15.403805922260169
    vertex 25.000000000036263 59.95984476673144 15.838184011051341
    vertex 25.000000000036508 61.075000000009865 15.691371039392582
  endloop
endfacet
facet normal -1.0 -6.978243158898817e-28 -1.8197716257971074e-12
  outer loop
    vertex 25.000000000037044 56.478805922297305 15.403805922260169
    vertex 25.000000000036508 61.075000000009865 15.691371039392582
    vertex 25.000000000037044 65.67119407772242 15.403805922260169
  endloop
endfacet
facet normal -1.0 -6.978243158898817e-28 -1.8197716257971074e-12
  outer loop
    vertex 25.000000000037044 56.478805922297305 15.403805922260169
    vertex 25.000000000037044 65.67119407772242 15.403805922260169
    vertex 25.000000000038927 64.32500000000987 14.370834875373877
  endloop
endfacet
facet normal -1.0 -6.978243158898817e-28 -1.8197716257971074e-12
  outer loop
    vertex 25.000000000037044 56.478805922297305 15.403805922260169
    vertex 25.000000000038927 64.32500000000987 14.370834875373877
    vertex 25.000000000038927 57.82500000000986 14.370834875373877
  endloop
endfacet
facet normal -1.0 -6.978243158898817e-28 -1.8197716257971074e-12
  outer loop
    vertex 25.000000000038927 57.82500000000986 14.370834875373877
    vertex 25.000000000038927 64.32500000000987 14.370834875373877
    vertex 25.000000000040107 62.75732379317625 13.721482129093788
  endloop
endfacet
facet normal -1.0 -6.978243158898817e-28 -1.8197716257971074e-12
  outer loop
    vertex 25.000000000038927 57.82500000000986 14.370834875373877
    vertex 25.000000000040107 62.75732379317625 13.721482129093788
    vertex 25.000000000040107 59.392676206843475 13.721482129093788
  endloop
endfacet
facet normal -1.0 -6.978243158898817e-28 -1.8197716257971074e-12
  outer loop
    vertex 25.000000000040107 59.392676206843475 13.721482129093788
    vertex 25.000000000040107 62.75732379317625 13.721482129093788
    vertex 25.00000000004051 61.075000000009865 13.49999999997273
  endloop
endfacet
facet normal 0.8022263795306297 0.36344272570333175 -0.4736477817096907
  outer loop
    vertex 42.00000000003467 62.975000000009864 16.709103465622796
    vertex 40.00783986758429 65.67119407772246 15.403805922287477
    vertex 42.00000000003357 63.76200576851875 17.31299423149478
  endloop
endfacet
facet normal 0.8022263795306297 0.36344272570333175 -0.4736477817096907
  outer loop
    vertex 40.00783986758429 65.67119407772246 15.403805922287477
    vertex 42.00000000003467 62.975000000009864 16.709103465622796
    vertex 40.007839867586185 64.3250000000099 14.370834875401185
  endloop
endfacet
facet normal 0.8022263795301846 0.5515745241353199 -0.22846964855487392
  outer loop
    vertex 42.00000000003214 64.36589653439073 18.100000000003654
    vertex 40.00783986757899 67.35351787088884 18.317676206833656
    vertex 42.00000000003046 64.74551813990833 19.01648762861408
  endloop
endfacet
facet normal 0.8022263795301846 0.5515745241353199 -0.22846964855487392
  outer loop
    vertex 40.00783986757899 67.35351787088884 18.317676206833656
    vertex 42.00000000003214 64.36589653439073 18.100000000003654
    vertex 40.00783986758182 66.70416512460875 16.750000000000032
  endloop
endfacet
facet normal 0.8022263795307707 0.22846964855633434 -0.551574524133863
  outer loop
    vertex 42.00000000003538 62.05851237139944 16.329481860105208
    vertex 40.007839867586185 64.3250000000099 14.370834875401185
    vertex 42.00000000003467 62.975000000009864 16.709103465622796
  endloop
endfacet
facet normal 0.8022263795307707 0.22846964855633434 -0.551574524133863
  outer loop
    vertex 40.007839867586185 64.3250000000099 14.370834875401185
    vertex 42.00000000003538 62.05851237139944 16.329481860105208
    vertex 40.00783986758735 62.75732379317627 13.721482129121096
  endloop
endfacet
facet normal 0.8022263795301816 -0.551574524135323 -0.228469648554877
  outer loop
    vertex 40.00783986757899 54.79648212913092 18.317676206833656
    vertex 42.00000000003214 57.784103465629 18.100000000003668
    vertex 42.00000000003046 57.40448186011141 19.01648762861408
  endloop
endfacet
facet normal 0.8022263795301816 -0.551574524135323 -0.228469648554877
  outer loop
    vertex 42.00000000003214 57.784103465629 18.100000000003668
    vertex 40.00783986757899 54.79648212913092 18.317676206833656
    vertex 40.00783986758182 55.445834875411016 16.750000000000043
  endloop
endfacet
facet normal 0.8022263795299076 -0.5919123742596714 -0.07792674242271147
  outer loop
    vertex 40.00783986757899 54.79648212913092 18.317676206833656
    vertex 42.00000000002868 57.27500000000986 20.000000000003663
    vertex 40.00783986757592 54.575000000009865 20.000000000000036
  endloop
endfacet
facet normal 0.8022263795299076 -0.5919123742596714 -0.07792674242271147
  outer loop
    vertex 42.00000000002868 57.27500000000986 20.000000000003663
    vertex 40.00783986757899 54.79648212913092 18.317676206833656
    vertex 42.00000000003046 57.40448186011141 19.01648762861408
  endloop
endfacet
facet normal 0.8022263795287613 -0.22846964855633634 0.5515745241367844
  outer loop
    vertex 40.00783986756568 57.825000000009894 25.629165124598888
    vertex 42.000000000022 60.09148762862029 23.670518139902118
    vertex 40.007839867564485 59.392676206843504 26.278517870878975
  endloop
endfacet
facet normal 0.8022263795287613 -0.22846964855633634 0.5515745241367844
  outer loop
    vertex 42.000000000022 60.09148762862029 23.670518139902118
    vertex 40.00783986756568 57.825000000009894 25.629165124598888
    vertex 42.00000000002271 59.17500000000987 23.29089653438453
  endloop
endfacet
facet normal 0.8022263795286881 -0.07792674242417333 0.5919123742611315
  outer loop
    vertex 40.007839867564485 59.392676206843504 26.278517870878975
    vertex 42.000000000021764 61.075000000009865 23.800000000003667
    vertex 40.0078398675641 61.07500000000989 26.500000000000036
  endloop
endfacet
facet normal 0.8022263795286881 -0.07792674242417333 0.5919123742611315
  outer loop
    vertex 42.000000000021764 61.075000000009865 23.800000000003667
    vertex 40.007839867564485 59.392676206843504 26.278517870878975
    vertex 42.000000000022 60.09148762862029 23.670518139902118
  endloop
endfacet
facet normal 0.8022263795308431 0.07792674242417329 -0.5919123742582111
  outer loop
    vertex 42.00000000003559 61.075000000009865 16.20000000000366
    vertex 40.00783986758735 62.75732379317627 13.721482129121096
    vertex 42.00000000003538 62.05851237139944 16.329481860105208
  endloop
endfacet
facet normal 0.8022263795308431 0.07792674242417329 -0.5919123742582111
  outer loop
    vertex 40.00783986758735 62.75732379317627 13.721482129121096
    vertex 42.00000000003559 61.075000000009865 16.20000000000366
    vertex 40.007839867587776 61.07500000000989 13.500000000000037
  endloop
endfacet
facet normal 1.0 0.0 1.8196624762545355e-12
  outer loop
    vertex 42.000000000022 60.09148762862029 23.670518139902118
    vertex 42.000000000022 62.05851237139945 23.670518139902118
    vertex 42.000000000021764 61.075000000009865 23.800000000003667
  endloop
endfacet
facet normal 1.0 0.0 1.8196624762545355e-12
  outer loop
    vertex 42.000000000022 62.05851237139945 23.670518139902118
    vertex 42.000000000022 60.09148762862029 23.670518139902118
    vertex 42.00000000002271 59.17500000000987 23.29089653438453
  endloop
endfacet
facet normal 1.0 0.0 1.8196624762545355e-12
  outer loop
    vertex 42.000000000022 62.05851237139945 23.670518139902118
    vertex 42.00000000002271 59.17500000000987 23.29089653438453
    vertex 42.00000000002271 62.975000000009864 23.29089653438453
  endloop
endfacet
facet normal 1.0 0.0 1.8196624762545355e-12
  outer loop
    vertex 42.00000000002271 62.975000000009864 23.29089653438453
    vertex 42.00000000002271 59.17500000000987 23.29089653438453
    vertex 42.00000000002379 58.38799423150098 22.687005768512545
  endloop
endfacet
facet normal 1.0 0.0 1.8196624762545355e-12
  outer loop
    vertex 42.00000000002271 62.975000000009864 23.29089653438453
    vertex 42.00000000002379 58.38799423150098 22.687005768512545
    vertex 42.00000000002379 63.76200576851875 22.687005768512545
  endloop
endfacet
facet normal 1.0 0.0 1.8196624762545355e-12
  outer loop
    vertex 42.00000000002379 63.76200576851875 22.687005768512545
    vertex 42.00000000002379 58.38799423150098 22.687005768512545
    vertex 42.000000000025224 57.784103465629 21.90000000000366
  endloop
endfacet
facet normal 1.0 0.0 1.8196624762545355e-12
  outer loop
    vertex 42.00000000002379 63.76200576851875 22.687005768512545
    vertex 42.000000000025224 57.784103465629 21.90000000000366
    vertex 42.000000000025224 64.36589653439073 21.90000000000366
  endloop
endfacet
facet normal 1.0 0.0 1.8196624762545355e-12
  outer loop
    vertex 42.000000000025224 64.36589653439073 21.90000000000366
    vertex 42.000000000025224 57.784103465629 21.90000000000366
    vertex 42.000000000026894 57.40448186011141 20.983512371393235
  endloop
endfacet
facet normal 1.0 0.0 1.8196624762545355e-12
  outer loop
    vertex 42.000000000025224 64.36589653439073 21.90000000000366
    vertex 42.000000000026894 57.40448186011141 20.983512371393235
    vertex 42.000000000026894 64.74551813990833 20.983512371393246
  endloop
endfacet
facet normal 1.0 0.0 1.8196624762545355e-12
  outer loop
    vertex 42.000000000026894 64.74551813990833 20.983512371393246
    vertex 42.000000000026894 57.40448186011141 20.983512371393235
    vertex 42.00000000002868 64.87500000000988 20.000000000003652
  endloop
endfacet
facet normal 1.0 0.0 1.8196624762545355e-12
  outer loop
    vertex 42.00000000002868 64.87500000000988 20.000000000003652
    vertex 42.000000000026894 57.40448186011141 20.983512371393235
    vertex 42.00000000002868 57.27500000000986 20.000000000003663
  endloop
endfacet
facet normal 1.0 0.0 1.8196624762545355e-12
  outer loop
    vertex 42.00000000002868 64.87500000000988 20.000000000003652
    vertex 42.00000000002868 57.27500000000986 20.000000000003663
    vertex 42.00000000003046 57.40448186011141 19.01648762861408
  endloop
endfacet
facet normal 1.0 0.0 1.8196624762545355e-12
  outer loop
    vertex 42.00000000002868 64.87500000000988 20.000000000003652
    vertex 42.00000000003046 57.40448186011141 19.01648762861408
    vertex 42.00000000003046 64.74551813990833 19.01648762861408
  endloop
endfacet
facet normal 1.0 0.0 1.8196624762545355e-12
  outer loop
    vertex 42.00000000003046 64.74551813990833 19.01648762861408
    vertex 42.00000000003046 57.40448186011141 19.01648762861408
    vertex 42.00000000003214 57.784103465629 18.100000000003668
  endloop
endfacet
facet normal 1.0 0.0 1.8196624762545355e-12
  outer loop
    vertex 42.00000000003046 64.74551813990833 19.01648762861408
    vertex 42.00000000003214 57.784103465629 18.100000000003668
    vertex 42.00000000003214 64.36589653439073 18.100000000003654
  endloop
endfacet
facet normal 1.0 0.0 1.8196624762545355e-12
  outer loop
    vertex 42.00000000003214 64.36589653439073 18.100000000003654
    vertex 42.00000000003214 57.784103465629 18.100000000003668
    vertex 42.00000000003357 58.38799423150098 17.31299423149478
  endloop
endfacet
facet normal 1.0 0.0 1.8196624762545355e-12
  outer loop
    vertex 42.00000000003214 64.36589653439073 18.100000000003654
    vertex 42.00000000003357 58.38799423150098 17.31299423149478
    vertex 42.00000000003357 63.76200576851875 17.31299423149478
  endloop
endfacet
facet normal 1.0 0.0 1.8196624762545355e-12
  outer loop
    vertex 42.00000000003357 63.76200576851875 17.31299423149478
    vertex 42.00000000003357 58.38799423150098 17.31299423149478
    vertex 42.00000000003467 59.17500000000987 16.709103465622796
  endloop
endfacet
facet normal 1.0 0.0 1.8196624762545355e-12
  outer loop
    vertex 42.00000000003357 63.76200576851875 17.31299423149478
    vertex 42.00000000003467 59.17500000000987 16.709103465622796
    vertex 42.00000000003467 62.975000000009864 16.709103465622796
  endloop
endfacet
facet normal 1.0 0.0 1.8196624762545355e-12
  outer loop
    vertex 42.00000000003467 62.975000000009864 16.709103465622796
    vertex 42.00000000003467 59.17500000000987 16.709103465622796
    vertex 42.00000000003538 60.09148762862028 16.329481860105208
  endloop
endfacet
facet normal 1.0 0.0 1.8196624762545355e-12
  outer loop
    vertex 42.00000000003467 62.975000000009864 16.709103465622796
    vertex 42.00000000003538 60.09148762862028 16.329481860105208
    vertex 42.00000000003538 62.05851237139944 16.329481860105208
  endloop
endfacet
facet normal 1.0 0.0 1.8196624762545355e-12
  outer loop
    vertex 42.00000000003538 62.05851237139944 16.329481860105208
    vertex 42.00000000003538 60.09148762862028 16.329481860105208
    vertex 42.00000000003559 61.075000000009865 16.20000000000366
  endloop
endfacet
facet normal 0.802226379530769 -0.22846964855633603 -0.5515745241338643
  outer loop
    vertex 40.007839867586185 57.82500000000988 14.370834875401185
    vertex 42.00000000003538 60.09148762862028 16.329481860105208
    vertex 42.00000000003467 59.17500000000987 16.709103465622796
  endloop
endfacet
facet normal 0.802226379530769 -0.22846964855633603 -0.5515745241338643
  outer loop
    vertex 42.00000000003538 60.09148762862028 16.329481860105208
    vertex 40.007839867586185 57.82500000000988 14.370834875401185
    vertex 40.00783986758735 59.3926762068435 13.721482129121096
  endloop
endfacet
facet normal 0.8022263795306269 -0.3634427257033339 -0.4736477817096937
  outer loop
    vertex 40.00783986758429 56.47880592229732 15.403805922287477
    vertex 42.00000000003467 59.17500000000987 16.709103465622796
    vertex 42.00000000003357 58.38799423150098 17.31299423149478
  endloop
endfacet
facet normal 0.8022263795306269 -0.3634427257033339 -0.4736477817096937
  outer loop
    vertex 42.00000000003467 59.17500000000987 16.709103465622796
    vertex 40.00783986758429 56.47880592229732 15.403805922287477
    vertex 40.007839867586185 57.82500000000988 14.370834875401185
  endloop
endfacet
facet normal 0.8022263795293503 -0.5515745241353224 0.22846964855779842
  outer loop
    vertex 40.00783986757288 54.79648212913092 21.68232379316643
    vertex 42.000000000025224 57.784103465629 21.90000000000366
    vertex 40.00783986757 55.44583487541102 23.250000000000043
  endloop
endfacet
facet normal 0.8022263795293503 -0.5515745241353224 0.22846964855779842
  outer loop
    vertex 42.000000000025224 57.784103465629 21.90000000000366
    vertex 40.00783986757288 54.79648212913092 21.68232379316643
    vertex 42.000000000026894 57.40448186011141 20.983512371393235
  endloop
endfacet
facet normal 0.8022263795299106 0.591912374259667 -0.07792674242271215
  outer loop
    vertex 42.00000000002868 64.87500000000988 20.000000000003652
    vertex 40.00783986757899 67.35351787088884 18.317676206833656
    vertex 40.00783986757592 67.5750000000099 20.000000000000036
  endloop
endfacet
facet normal 0.8022263795299106 0.591912374259667 -0.07792674242271215
  outer loop
    vertex 40.00783986757899 67.35351787088884 18.317676206833656
    vertex 42.00000000002868 64.87500000000988 20.000000000003652
    vertex 42.00000000003046 64.74551813990833 19.01648762861408
  endloop
endfacet
facet normal 0.8022263795308424 -0.07792674242417291 -0.5919123742582119
  outer loop
    vertex 40.00783986758735 59.3926762068435 13.721482129121096
    vertex 42.00000000003559 61.075000000009865 16.20000000000366
    vertex 42.00000000003538 60.09148762862028 16.329481860105208
  endloop
endfacet
facet normal 0.8022263795308424 -0.07792674242417291 -0.5919123742582119
  outer loop
    vertex 42.00000000003559 61.075000000009865 16.20000000000366
    vertex 40.00783986758735 59.3926762068435 13.721482129121096
    vertex 40.007839867587776 61.07500000000989 13.500000000000037
  endloop
endfacet
facet normal 0.8022263795296241 -0.5919123742596712 0.07792674242563072
  outer loop
    vertex 40.00783986757592 54.575000000009865 20.000000000000036
    vertex 42.000000000026894 57.40448186011141 20.983512371393235
    vertex 40.00783986757288 54.79648212913092 21.68232379316643
  endloop
endfacet
facet normal 0.8022263795296241 -0.5919123742596712 0.07792674242563072
  outer loop
    vertex 42.000000000026894 57.40448186011141 20.983512371393235
    vertex 40.00783986757592 54.575000000009865 20.000000000000036
    vertex 42.00000000002868 57.27500000000986 20.000000000003663
  endloop
endfacet
facet normal 0.802226379530427 -0.4736477817111514 -0.36344272570187575
  outer loop
    vertex 40.00783986758182 55.445834875411016 16.750000000000043
    vertex 42.00000000003357 58.38799423150098 17.31299423149478
    vertex 42.00000000003214 57.784103465629 18.100000000003668
  endloop
endfacet
facet normal 0.802226379530427 -0.4736477817111514 -0.36344272570187575
  outer loop
    vertex 42.00000000003357 58.38799423150098 17.31299423149478
    vertex 40.00783986758182 55.445834875411016 16.750000000000043
    vertex 40.00783986758429 56.47880592229732 15.403805922287477
  endloop
endfacet
facet normal 0.802226379529104 -0.4736477817111521 0.3634427257047948
  outer loop
    vertex 40.00783986757 55.44583487541102 23.250000000000043
    vertex 42.00000000002379 58.38799423150098 22.687005768512545
    vertex 40.00783986756756 56.47880592229732 24.596194077712596
  endloop
endfacet
facet normal 0.802226379529104 -0.4736477817111521 0.3634427257047948
  outer loop
    vertex 42.00000000002379 58.38799423150098 22.687005768512545
    vertex 40.00783986757 55.44583487541102 23.250000000000043
    vertex 42.000000000025224 57.784103465629 21.90000000000366
  endloop
endfacet
facet normal 0.8022263795289027 -0.36344272570333286 0.47364778171261485
  outer loop
    vertex 40.00783986756756 56.47880592229732 24.596194077712596
    vertex 42.00000000002271 59.17500000000987 23.29089653438453
    vertex 40.00783986756568 57.825000000009894 25.629165124598888
  endloop
endfacet
facet normal 0.8022263795289027 -0.36344272570333286 0.47364778171261485
  outer loop
    vertex 42.00000000002271 59.17500000000987 23.29089653438453
    vertex 40.00783986756756 56.47880592229732 24.596194077712596
    vertex 42.00000000002379 58.38799423150098 22.687005768512545
  endloop
endfacet
facet normal 0.80222637953043 0.4736477817111481 -0.3634427257018736
  outer loop
    vertex 42.00000000003357 63.76200576851875 17.31299423149478
    vertex 40.00783986758182 66.70416512460875 16.750000000000032
    vertex 42.00000000003214 64.36589653439073 18.100000000003654
  endloop
endfacet
facet normal 0.80222637953043 0.4736477817111481 -0.3634427257018736
  outer loop
    vertex 40.00783986758182 66.70416512460875 16.750000000000032
    vertex 42.00000000003357 63.76200576851875 17.31299423149478
    vertex 40.00783986758429 65.67119407772246 15.403805922287477
  endloop
endfacet
facet normal 0.802226379529627 0.5919123742596671 0.07792674242563084
  outer loop
    vertex 42.000000000026894 64.74551813990833 20.983512371393246
    vertex 40.00783986757592 67.5750000000099 20.000000000000036
    vertex 40.00783986757288 67.35351787088884 21.682323793166418
  endloop
endfacet
facet normal 0.802226379529627 0.5919123742596671 0.07792674242563084
  outer loop
    vertex 40.00783986757592 67.5750000000099 20.000000000000036
    vertex 42.000000000026894 64.74551813990833 20.983512371393246
    vertex 42.00000000002868 64.87500000000988 20.000000000003652
  endloop
endfacet
facet normal 0.8022263795293527 0.5515745241353199 0.22846964855779509
  outer loop
    vertex 42.000000000025224 64.36589653439073 21.90000000000366
    vertex 40.00783986757288 67.35351787088884 21.682323793166418
    vertex 40.00783986757 66.70416512460875 23.250000000000032
  endloop
endfacet
facet normal 0.8022263795293527 0.5515745241353199 0.22846964855779509
  outer loop
    vertex 40.00783986757288 67.35351787088884 21.682323793166418
    vertex 42.000000000025224 64.36589653439073 21.90000000000366
    vertex 42.000000000026894 64.74551813990833 20.983512371393246
  endloop
endfacet
facet normal 0.8022263795287633 0.2284696485563351 0.5515745241367819
  outer loop
    vertex 42.000000000022 62.05851237139945 23.670518139902118
    vertex 40.00783986756568 64.3250000000099 25.629165124598888
    vertex 40.007839867564485 62.75732379317628 26.278517870878975
  endloop
endfacet
facet normal 0.8022263795287633 0.2284696485563351 0.5515745241367819
  outer loop
    vertex 40.00783986756568 64.3250000000099 25.629165124598888
    vertex 42.000000000022 62.05851237139945 23.670518139902118
    vertex 42.00000000002271 62.975000000009864 23.29089653438453
  endloop
endfacet
facet normal 0.8022263795286888 0.07792674242417279 0.5919123742611307
  outer loop
    vertex 42.000000000021764 61.075000000009865 23.800000000003667
    vertex 40.007839867564485 62.75732379317628 26.278517870878975
    vertex 40.0078398675641 61.07500000000989 26.500000000000036
  endloop
endfacet
facet normal 0.8022263795286888 0.07792674242417279 0.5919123742611307
  outer loop
    vertex 40.007839867564485 62.75732379317628 26.278517870878975
    vertex 42.000000000021764 61.075000000009865 23.800000000003667
    vertex 42.000000000022 62.05851237139945 23.670518139902118
  endloop
endfacet
facet normal 0.8022263795289056 0.36344272570333186 0.47364778171261057
  outer loop
    vertex 42.00000000002271 62.975000000009864 23.29089653438453
    vertex 40.00783986756756 65.67119407772246 24.596194077712596
    vertex 40.00783986756568 64.3250000000099 25.629165124598888
  endloop
endfacet
facet normal 0.8022263795289056 0.36344272570333186 0.47364778171261057
  outer loop
    vertex 40.00783986756756 65.67119407772246 24.596194077712596
    vertex 42.00000000002271 62.975000000009864 23.29089653438453
    vertex 42.00000000002379 63.76200576851875 22.687005768512545
  endloop
endfacet
facet normal 0.802226379529107 0.4736477817111501 0.36344272570479114
  outer loop
    vertex 42.00000000002379 63.76200576851875 22.687005768512545
    vertex 40.00783986757 66.70416512460875 23.250000000000032
    vertex 40.00783986756756 65.67119407772246 24.596194077712596
  endloop
endfacet
facet normal 0.802226379529107 0.4736477817111501 0.36344272570479114
  outer loop
    vertex 40.00783986757 66.70416512460875 23.250000000000032
    vertex 42.00000000002379 63.76200576851875 22.687005768512545
    vertex 42.000000000025224 64.36589653439073 21.90000000000366
  endloop
endfacet
facet normal -1.0 -1.9981787601239867e-28 -1.8196699945613348e-12
  outer loop
    vertex 37.00000000002287 61.92910284884818 23.187555226748483
    vertex 37.00000000002287 60.22089715117155 23.187555226748483
    vertex 37.00000000002267 61.075000000009865 23.299999999994558
  endloop
endfacet
facet normal -1.0 -1.9981787601239867e-28 -1.8196699945613348e-12
  outer loop
    vertex 37.00000000002287 60.22089715117155 23.187555226748483
    vertex 37.00000000002287 61.92910284884818 23.187555226748483
    vertex 37.00000000002348 62.725000000009864 22.857883832483207
  endloop
endfacet
facet normal -1.0 -1.9981787601239867e-28 -1.8196699945613348e-12
  outer loop
    vertex 37.00000000002287 60.22089715117155 23.187555226748483
    vertex 37.00000000002348 62.725000000009864 22.857883832483207
    vertex 37.00000000002348 59.42500000000987 22.857883832483207
  endloop
endfacet
facet normal -1.0 -1.9981787601239867e-28 -1.8196699945613348e-12
  outer loop
    vertex 37.00000000002348 59.42500000000987 22.857883832483207
    vertex 37.00000000002348 62.725000000009864 22.857883832483207
    vertex 37.0000000000237 62.87500000000986 22.742784784286364
  endloop
endfacet
facet normal -1.0 -1.9981787601239867e-28 -1.8196699945613348e-12
  outer loop
    vertex 37.00000000002348 59.42500000000987 22.857883832483207
    vertex 37.0000000000237 62.87500000000986 22.742784784286364
    vertex 37.000000000024436 58.74154762209427 22.333452377910167
  endloop
endfacet
facet normal -1.0 -1.9981787601239867e-28 -1.8196699945613348e-12
  outer loop
    vertex 37.000000000024436 58.74154762209427 22.333452377910167
    vertex 37.0000000000237 62.87500000000986 22.742784784286364
    vertex 37.00000000003367 62.87500000000986 17.257215215702765
  endloop
endfacet
facet normal -1.0 -1.9981787601239867e-28 -1.8196699945613348e-12
  outer loop
    vertex 37.000000000024436 58.74154762209427 22.333452377910167
    vertex 37.00000000003367 62.87500000000986 17.257215215702765
    vertex 37.00000000002567 58.217116167521226 21.64999999999456
  endloop
endfacet
facet normal -1.0 -1.9981787601239867e-28 -1.8196699945613348e-12
  outer loop
    vertex 37.00000000002567 58.217116167521226 21.64999999999456
    vertex 37.00000000003367 62.87500000000986 17.257215215702765
    vertex 37.00000000002713 57.88744477325595 20.854102848832884
  endloop
endfacet
facet normal -1.0 -1.9981787601239867e-28 -1.8196699945613348e-12
  outer loop
    vertex 37.00000000002713 57.88744477325595 20.854102848832884
    vertex 37.00000000003367 62.87500000000986 17.257215215702765
    vertex 37.000000000028685 57.77500000000987 19.999999999994564
  endloop
endfacet
facet normal -1.0 -1.9981787601239867e-28 -1.8196699945613348e-12
  outer loop
    vertex 37.000000000028685 57.77500000000987 19.999999999994564
    vertex 37.00000000003367 62.87500000000986 17.257215215702765
    vertex 37.00000000003023 57.88744477325594 19.145897151156248
  endloop
endfacet
facet normal -1.0 -1.9981787601239867e-28 -1.8196699945613348e-12
  outer loop
    vertex 37.00000000003023 57.88744477325594 19.145897151156248
    vertex 37.00000000003367 62.87500000000986 17.257215215702765
    vertex 37.00000000003168 58.217116167521226 18.34999999999457
  endloop
endfacet
facet normal -1.0 -1.9981787601239867e-28 -1.8196699945613348e-12
  outer loop
    vertex 37.00000000003168 58.217116167521226 18.34999999999457
    vertex 37.00000000003367 62.87500000000986 17.257215215702765
    vertex 37.00000000003293 58.74154762209426 17.666547622078962
  endloop
endfacet
facet normal -1.0 -1.9981787601239867e-28 -1.8196699945613348e-12
  outer loop
    vertex 37.00000000003293 58.74154762209426 17.666547622078962
    vertex 37.00000000003367 62.87500000000986 17.257215215702765
    vertex 37.000000000033886 59.42500000000987 17.14211616750592
  endloop
endfacet
facet normal -1.0 -1.9981787601239867e-28 -1.8196699945613348e-12
  outer loop
    vertex 37.000000000033886 59.42500000000987 17.14211616750592
    vertex 37.00000000003367 62.87500000000986 17.257215215702765
    vertex 37.000000000033886 62.725000000009864 17.14211616750592
  endloop
endfacet
facet normal -1.0 -1.9981787601239867e-28 -1.8196699945613348e-12
  outer loop
    vertex 37.000000000033886 59.42500000000987 17.14211616750592
    vertex 37.000000000033886 62.725000000009864 17.14211616750592
    vertex 37.00000000003448 61.92910284884818 16.812444773240646
  endloop
endfacet
facet normal -1.0 -1.9981787601239867e-28 -1.8196699945613348e-12
  outer loop
    vertex 37.000000000033886 59.42500000000987 17.14211616750592
    vertex 37.00000000003448 61.92910284884818 16.812444773240646
    vertex 37.00000000003448 60.22089715117155 16.812444773240646
  endloop
endfacet
facet normal -1.0 -1.9981787601239867e-28 -1.8196699945613348e-12
  outer loop
    vertex 37.00000000003448 60.22089715117155 16.812444773240646
    vertex 37.00000000003448 61.92910284884818 16.812444773240646
    vertex 37.00000000003469 61.075000000009865 16.69999999999457
  endloop
endfacet
facet normal -0.7071067811878218 0.092295955641247 0.7010573846486939
  outer loop
    vertex 26.00000000003468 61.075000000009865 16.699999999974555
    vertex 25.000000000036263 59.95984476673144 15.838184011051341
    vertex 26.00000000003448 60.22089715117155 16.81244477322063
  endloop
endfacet
facet normal -0.7071067811878218 0.092295955641247 0.7010573846486939
  outer loop
    vertex 25.000000000036263 59.95984476673144 15.838184011051341
    vertex 26.00000000003468 61.075000000009865 16.699999999974555
    vertex 25.000000000036508 61.075000000009865 15.691371039392582
  endloop
endfacet
facet normal -0.7071067811877357 0.27059805007310483 0.6532814824368995
  outer loop
    vertex 26.00000000003448 60.22089715117155 16.81244477322063
    vertex 25.000000000035463 58.9206855197198 16.26861786462898
    vertex 26.00000000003389 59.42500000000987 17.142116167485906
  endloop
endfacet
facet normal -0.7071067811877357 0.27059805007310483 0.6532814824368995
  outer loop
    vertex 25.000000000035463 58.9206855197198 16.26861786462898
    vertex 26.00000000003448 60.22089715117155 16.81244477322063
    vertex 25.000000000036263 59.95984476673144 15.838184011051341
  endloop
endfacet
facet normal -0.7071067811875672 0.430459334576875 0.5609855267956491
  outer loop
    vertex 26.00000000003389 59.42500000000987 17.142116167485906
    vertex 25.00000000003423 58.02833924436689 16.95333924432976
    vertex 26.00000000003293 58.74154762209426 17.666547622058946
  endloop
endfacet
facet normal -0.7071067811875672 0.430459334576875 0.5609855267956491
  outer loop
    vertex 25.00000000003423 58.02833924436689 16.95333924432976
    vertex 26.00000000003389 59.42500000000987 17.142116167485906
    vertex 25.000000000035463 58.9206855197198 16.26861786462898
  endloop
endfacet
facet normal -0.7071067811873324 0.5609855267969333 0.4304593345755874
  outer loop
    vertex 26.00000000003293 58.74154762209426 17.666547622058946
    vertex 25.000000000032603 57.34361786466612 17.845685519682657
    vertex 26.000000000031683 58.217116167521226 18.349999999974553
  endloop
endfacet
facet normal -0.7071067811873324 0.5609855267969333 0.4304593345755874
  outer loop
    vertex 25.000000000032603 57.34361786466612 17.845685519682657
    vertex 26.00000000003293 58.74154762209426 17.666547622058946
    vertex 25.00000000003423 58.02833924436689 16.95333924432976
  endloop
endfacet
facet normal -0.7071067811870385 0.6532814824381896 0.2705980500718126
  outer loop
    vertex 26.000000000031683 58.217116167521226 18.349999999974553
    vertex 25.000000000030703 56.913184011088475 18.884844766694304
    vertex 26.000000000030234 57.88744477325594 19.145897151136232
  endloop
endfacet
facet normal -0.7071067811870385 0.6532814824381896 0.2705980500718126
  outer loop
    vertex 25.000000000030703 56.913184011088475 18.884844766694304
    vertex 26.000000000031683 58.217116167521226 18.349999999974553
    vertex 25.000000000032603 57.34361786466612 17.845685519682657
  endloop
endfacet
facet normal -0.7071067811867113 0.7010573846499822 0.0922959556399705
  outer loop
    vertex 26.000000000028688 57.77500000000987 19.99999999997455
    vertex 25.000000000030703 56.913184011088475 18.884844766694304
    vertex 25.00000000002868 56.76637103942972 19.999999999972733
  endloop
endfacet
facet normal -0.7071067811867113 0.7010573846499822 0.0922959556399705
  outer loop
    vertex 25.000000000030703 56.913184011088475 18.884844766694304
    vertex 26.000000000028688 57.77500000000987 19.99999999997455
    vertex 26.000000000030234 57.88744477325594 19.145897151136232
  endloop
endfacet
facet normal -0.7071067811863782 0.7010573846499791 -0.0922959556425458
  outer loop
    vertex 26.000000000027125 57.88744477325595 20.854102848812868
    vertex 25.00000000002868 56.76637103942972 19.999999999972733
    vertex 25.00000000002666 56.91318401108849 21.115155233251155
  endloop
endfacet
facet normal -0.7071067811863782 0.7010573846499791 -0.0922959556425458
  outer loop
    vertex 25.00000000002868 56.76637103942972 19.999999999972733
    vertex 26.000000000027125 57.88744477325595 20.854102848812868
    vertex 26.000000000028688 57.77500000000987 19.99999999997455
  endloop
endfacet
facet normal -0.707106781186055 0.6532814824381873 -0.27059805007438814
  outer loop
    vertex 26.000000000025675 58.217116167521226 21.649999999974543
    vertex 25.00000000002666 56.91318401108849 21.115155233251155
    vertex 25.000000000024755 57.34361786466612 22.154314480262805
  endloop
endfacet
facet normal -0.707106781186055 0.6532814824381873 -0.27059805007438814
  outer loop
    vertex 25.00000000002666 56.91318401108849 21.115155233251155
    vertex 26.000000000025675 58.217116167521226 21.649999999974543
    vertex 26.000000000027125 57.88744477325595 20.854102848812868
  endloop
endfacet
facet normal -0.7071067811857631 0.5609855267969299 -0.43045933457816926
  outer loop
    vertex 26.000000000024436 58.74154762209427 22.33345237789015
    vertex 25.000000000024755 57.34361786466612 22.154314480262805
    vertex 25.00000000002313 58.028339244366904 23.046660755615694
  endloop
endfacet
facet normal -0.7071067811857631 0.5609855267969299 -0.43045933457816926
  outer loop
    vertex 25.000000000024755 57.34361786466612 22.154314480262805
    vertex 26.000000000024436 58.74154762209427 22.33345237789015
    vertex 26.000000000025675 58.217116167521226 21.649999999974543
  endloop
endfacet
facet normal -0.7071067811855278 0.43045933457688945 -0.5609855267982086
  outer loop
    vertex 26.000000000023487 59.42500000000987 22.85788383246319
    vertex 25.00000000002313 58.028339244366904 23.046660755615694
    vertex 25.0000000000219 58.92068551971978 23.731382135316476
  endloop
endfacet
facet normal -0.7071067811855278 0.43045933457688945 -0.5609855267982086
  outer loop
    vertex 25.00000000002313 58.028339244366904 23.046660755615694
    vertex 26.000000000023487 59.42500000000987 22.85788383246319
    vertex 26.000000000024436 58.74154762209427 22.33345237789015
  endloop
endfacet
facet normal -0.707106781185359 0.27059805007308974 -0.6532814824394785
  outer loop
    vertex 26.00000000002288 60.22089715117155 23.187555226728467
    vertex 25.0000000000219 58.92068551971978 23.731382135316476
    vertex 25.0000000000211 59.95984476673144 24.161815988894116
  endloop
endfacet
facet normal -0.707106781185359 0.27059805007308974 -0.6532814824394785
  outer loop
    vertex 25.0000000000219 58.92068551971978 23.731382135316476
    vertex 26.00000000002288 60.22089715117155 23.187555226728467
    vertex 26.000000000023487 59.42500000000987 22.85788383246319
  endloop
endfacet
facet normal -0.7071067811852727 0.09229595564126705 -0.7010573846512627
  outer loop
    vertex 26.000000000022677 61.075000000009865 23.299999999974542
    vertex 25.0000000000211 59.95984476673144 24.161815988894116
    vertex 25.000000000020854 61.075000000009865 24.308628960552873
  endloop
endfacet
facet normal -0.7071067811852727 0.09229595564126705 -0.7010573846512627
  outer loop
    vertex 25.0000000000211 59.95984476673144 24.161815988894116
    vertex 26.000000000022677 61.075000000009865 23.299999999974542
    vertex 26.00000000002288 60.22089715117155 23.187555226728467
  endloop
endfacet
facet normal -0.7071067811852727 -0.09229595564126704 -0.7010573846512627
  outer loop
    vertex 25.0000000000211 62.19015523328829 24.161815988894116
    vertex 26.000000000022677 61.075000000009865 23.299999999974542
    vertex 25.000000000020854 61.075000000009865 24.308628960552873
  endloop
endfacet
facet normal -0.7071067811852727 -0.09229595564126704 -0.7010573846512627
  outer loop
    vertex 26.000000000022677 61.075000000009865 23.299999999974542
    vertex 25.0000000000211 62.19015523328829 24.161815988894116
    vertex 26.00000000002288 61.92910284884818 23.187555226728467
  endloop
endfacet
facet normal -0.7071067811853602 -0.27059805007308674 -0.6532814824394784
  outer loop
    vertex 25.00000000002191 63.229314480299934 23.731382135316476
    vertex 26.00000000002288 61.92910284884818 23.187555226728467
    vertex 25.0000000000211 62.19015523328829 24.161815988894116
  endloop
endfacet
facet normal -0.7071067811853602 -0.27059805007308674 -0.6532814824394784
  outer loop
    vertex 26.00000000002288 61.92910284884818 23.187555226728467
    vertex 25.00000000002191 63.229314480299934 23.731382135316476
    vertex 26.000000000023487 62.725000000009864 22.85788383246319
  endloop
endfacet
facet normal -0.7071067811855306 -0.4304593345768944 -0.5609855267982015
  outer loop
    vertex 25.000000000022787 63.87500000000986 23.23593021029583
    vertex 26.000000000023487 62.725000000009864 22.85788383246319
    vertex 25.00000000002191 63.229314480299934 23.731382135316476
  endloop
endfacet
facet normal -0.7071067811855306 -0.4304593345768944 -0.5609855267982015
  outer loop
    vertex 26.000000000023487 62.725000000009864 22.85788383246319
    vertex 25.000000000022787 63.87500000000986 23.23593021029583
    vertex 26.00000000002369 62.87500000000986 22.742784784266345
  endloop
endfacet
facet normal -0.7071067811865476 -0.7071067811865476 -1.2874342281945115e-12
  outer loop
    vertex 25.00000000003457 63.87500000000986 16.764069789649625
    vertex 26.00000000002369 62.87500000000986 22.742784784266345
    vertex 25.000000000022787 63.87500000000986 23.23593021029583
  endloop
endfacet
facet normal -0.7071067811865476 -0.7071067811865476 -1.2874342281945115e-12
  outer loop
    vertex 26.00000000002369 62.87500000000986 22.742784784266345
    vertex 25.00000000003457 63.87500000000986 16.764069789649625
    vertex 26.000000000033673 62.87500000000986 17.25721521568275
  endloop
endfacet
facet normal -0.7071067811875632 -0.4304593345768675 0.5609855267956599
  outer loop
    vertex 25.00000000003457 63.87500000000986 16.764069789649625
    vertex 26.00000000003389 62.725000000009864 17.142116167485906
    vertex 26.000000000033673 62.87500000000986 17.25721521568275
  endloop
endfacet
facet normal -0.7071067811875632 -0.4304593345768675 0.5609855267956599
  outer loop
    vertex 26.00000000003389 62.725000000009864 17.142116167485906
    vertex 25.00000000003457 63.87500000000986 16.764069789649625
    vertex 25.000000000035453 63.229314480299934 16.26861786462898
  endloop
endfacet
facet normal -0.7071067811877338 -0.2705980500731097 0.6532814824368997
  outer loop
    vertex 25.000000000035453 63.229314480299934 16.26861786462898
    vertex 26.00000000003448 61.92910284884818 16.81244477322063
    vertex 26.00000000003389 62.725000000009864 17.142116167485906
  endloop
endfacet
facet normal -0.7071067811877338 -0.2705980500731097 0.6532814824368997
  outer loop
    vertex 26.00000000003448 61.92910284884818 16.81244477322063
    vertex 25.000000000035453 63.229314480299934 16.26861786462898
    vertex 25.000000000036263 62.19015523328829 15.838184011051341
  endloop
endfacet
facet normal -0.7071067811878218 -0.092295955641247 0.7010573846486939
  outer loop
    vertex 25.000000000036263 62.19015523328829 15.838184011051341
    vertex 26.00000000003468 61.075000000009865 16.699999999974555
    vertex 26.00000000003448 61.92910284884818 16.81244477322063
  endloop
endfacet
facet normal -0.7071067811878218 -0.092295955641247 0.7010573846486939
  outer loop
    vertex 26.00000000003468 61.075000000009865 16.699999999974555
    vertex 25.000000000036263 62.19015523328829 15.838184011051341
    vertex 25.000000000036508 61.075000000009865 15.691371039392582
  endloop
endfacet
facet normal -1.6811352669672621e-12 -0.38268343236508934 0.9238795325112871
  outer loop
    vertex 37.000000000033886 62.725000000009864 17.14211616750592
    vertex 26.00000000003448 61.92910284884818 16.81244477322063
    vertex 37.00000000003448 61.92910284884818 16.812444773240646
  endloop
endfacet
facet normal -1.6811352669672621e-12 -0.38268343236508934 0.9238795325112871
  outer loop
    vertex 26.00000000003448 61.92910284884818 16.81244477322063
    vertex 37.000000000033886 62.725000000009864 17.14211616750592
    vertex 26.00000000003389 62.725000000009864 17.142116167485906
  endloop
endfacet
facet normal -2.3751167827509317e-13 0.9914448613738114 0.13052619222004486
  outer loop
    vertex 26.000000000028688 57.77500000000987 19.99999999997455
    vertex 37.00000000003023 57.88744477325594 19.145897151156248
    vertex 26.000000000030234 57.88744477325594 19.145897151136232
  endloop
endfacet
facet normal -2.3751167827509317e-13 0.9914448613738114 0.13052619222004486
  outer loop
    vertex 37.00000000003023 57.88744477325594 19.145897151156248
    vertex 26.000000000028688 57.77500000000987 19.99999999997455
    vertex 37.000000000028685 57.77500000000987 19.999999999994564
  endloop
endfacet
facet normal -1.443623089324074e-12 0.6087614290087181 0.793353340291237
  outer loop
    vertex 37.000000000033886 59.42500000000987 17.14211616750592
    vertex 26.00000000003293 58.74154762209426 17.666547622058946
    vertex 37.00000000003293 58.74154762209426 17.666547622078962
  endloop
endfacet
facet normal -1.443623089324074e-12 0.6087614290087181 0.793353340291237
  outer loop
    vertex 26.00000000003293 58.74154762209426 17.666547622058946
    vertex 37.000000000033886 59.42500000000987 17.14211616750592
    vertex 26.00000000003389 59.42500000000987 17.142116167485906
  endloop
endfacet
facet normal 2.3751214465656283e-13 0.9914448613738096 -0.1305261922200573
  outer loop
    vertex 37.00000000002713 57.88744477325595 20.854102848832884
    vertex 26.000000000028688 57.77500000000987 19.99999999997455
    vertex 26.000000000027125 57.88744477325595 20.854102848812868
  endloop
endfacet
facet normal 2.3751214465656283e-13 0.9914448613738096 -0.1305261922200573
  outer loop
    vertex 26.000000000028688 57.77500000000987 19.99999999997455
    vertex 37.00000000002713 57.88744477325595 20.854102848832884
    vertex 37.000000000028685 57.77500000000987 19.999999999994564
  endloop
endfacet
facet normal 0.0 -1.0 0.0
  outer loop
    vertex 37.00000000003367 62.87500000000986 17.257215215702765
    vertex 26.00000000002369 62.87500000000986 22.742784784266345
    vertex 26.000000000033673 62.87500000000986 17.25721521568275
  endloop
endfacet
facet normal 0.0 -1.0 0.0
  outer loop
    vertex 26.00000000002369 62.87500000000986 22.742784784266345
    vertex 37.00000000003367 62.87500000000986 17.257215215702765
    vertex 37.0000000000237 62.87500000000986 22.742784784286364
  endloop
endfacet
facet normal -1.107730384973848e-12 0.7933533402912409 0.6087614290087131
  outer loop
    vertex 37.00000000003168 58.217116167521226 18.34999999999457
    vertex 26.00000000003293 58.74154762209426 17.666547622058946
    vertex 26.000000000031683 58.217116167521226 18.349999999974553
  endloop
endfacet
facet normal -1.107730384973848e-12 0.7933533402912409 0.6087614290087131
  outer loop
    vertex 26.00000000003293 58.74154762209426 17.666547622058946
    vertex 37.00000000003168 58.217116167521226 18.34999999999457
    vertex 37.00000000003293 58.74154762209426 17.666547622078962
  endloop
endfacet
facet normal -1.8040801279358805e-12 0.13052619222005132 0.9914448613738105
  outer loop
    vertex 37.00000000003469 61.075000000009865 16.69999999999457
    vertex 26.00000000003448 60.22089715117155 16.81244477322063
    vertex 37.00000000003448 60.22089715117155 16.812444773240646
  endloop
endfacet
facet normal -1.8040801279358805e-12 0.13052619222005132 0.9914448613738105
  outer loop
    vertex 26.00000000003448 60.22089715117155 16.81244477322063
    vertex 37.00000000003469 61.075000000009865 16.69999999999457
    vertex 26.00000000003468 61.075000000009865 16.699999999974555
  endloop
endfacet
facet normal -6.963479151299714e-13 0.9238795325112823 0.38268343236510055
  outer loop
    vertex 37.00000000003023 57.88744477325594 19.145897151156248
    vertex 26.000000000031683 58.217116167521226 18.349999999974553
    vertex 26.000000000030234 57.88744477325594 19.145897151136232
  endloop
endfacet
facet normal -6.963479151299714e-13 0.9238795325112823 0.38268343236510055
  outer loop
    vertex 26.000000000031683 58.217116167521226 18.349999999974553
    vertex 37.00000000003023 57.88744477325594 19.145897151156248
    vertex 37.00000000003168 58.217116167521226 18.34999999999457
  endloop
endfacet
facet normal 1.443623238130414e-12 -0.6087614290087202 -0.7933533402912355
  outer loop
    vertex 26.00000000002369 62.87500000000986 22.742784784266345
    vertex 37.00000000002348 62.725000000009864 22.857883832483207
    vertex 26.000000000023487 62.725000000009864 22.85788383246319
  endloop
endfacet
facet normal 1.443623238130414e-12 -0.6087614290087202 -0.7933533402912355
  outer loop
    vertex 37.00000000002348 62.725000000009864 22.857883832483207
    vertex 26.00000000002369 62.87500000000986 22.742784784266345
    vertex 37.0000000000237 62.87500000000986 22.742784784286364
  endloop
endfacet
facet normal -1.8040801279358805e-12 -0.13052619222005132 0.9914448613738105
  outer loop
    vertex 37.00000000003448 61.92910284884818 16.812444773240646
    vertex 26.00000000003468 61.075000000009865 16.699999999974555
    vertex 37.00000000003469 61.075000000009865 16.69999999999457
  endloop
endfacet
facet normal -1.8040801279358805e-12 -0.13052619222005132 0.9914448613738105
  outer loop
    vertex 26.00000000003468 61.075000000009865 16.699999999974555
    vertex 37.00000000003448 61.92910284884818 16.812444773240646
    vertex 26.00000000003448 61.92910284884818 16.81244477322063
  endloop
endfacet
facet normal 1.1077297038423618e-12 0.7933533402912347 -0.6087614290087213
  outer loop
    vertex 37.000000000024436 58.74154762209427 22.333452377910167
    vertex 26.000000000025675 58.217116167521226 21.649999999974543
    vertex 26.000000000024436 58.74154762209427 22.33345237789015
  endloop
endfacet
facet normal 1.1077297038423618e-12 0.7933533402912347 -0.6087614290087213
  outer loop
    vertex 26.000000000025675 58.217116167521226 21.649999999974543
    vertex 37.000000000024436 58.74154762209427 22.333452377910167
    vertex 37.00000000002567 58.217116167521226 21.64999999999456
  endloop
endfacet
facet normal -1.6811352669672615e-12 0.3826834323650894 0.9238795325112868
  outer loop
    vertex 37.00000000003448 60.22089715117155 16.812444773240646
    vertex 26.00000000003389 59.42500000000987 17.142116167485906
    vertex 37.000000000033886 59.42500000000987 17.14211616750592
  endloop
endfacet
facet normal -1.6811352669672615e-12 0.3826834323650894 0.9238795325112868
  outer loop
    vertex 26.00000000003389 59.42500000000987 17.142116167485906
    vertex 37.00000000003448 60.22089715117155 16.812444773240646
    vertex 26.00000000003448 60.22089715117155 16.81244477322063
  endloop
endfacet
facet normal 1.6811348689877501e-12 0.3826834323650894 -0.9238795325112868
  outer loop
    vertex 26.00000000002288 60.22089715117155 23.187555226728467
    vertex 37.00000000002348 59.42500000000987 22.857883832483207
    vertex 26.000000000023487 59.42500000000987 22.85788383246319
  endloop
endfacet
facet normal 1.6811348689877501e-12 0.3826834323650894 -0.9238795325112868
  outer loop
    vertex 37.00000000002348 59.42500000000987 22.857883832483207
    vertex 26.00000000002288 60.22089715117155 23.187555226728467
    vertex 37.00000000002287 60.22089715117155 23.187555226748483
  endloop
endfacet
facet normal 1.6811348689877503e-12 -0.38268343236508934 -0.9238795325112871
  outer loop
    vertex 26.000000000023487 62.725000000009864 22.85788383246319
    vertex 37.00000000002287 61.92910284884818 23.187555226748483
    vertex 26.00000000002288 61.92910284884818 23.187555226728467
  endloop
endfacet
facet normal 1.6811348689877503e-12 -0.38268343236508934 -0.9238795325112871
  outer loop
    vertex 37.00000000002287 61.92910284884818 23.187555226748483
    vertex 26.000000000023487 62.725000000009864 22.85788383246319
    vertex 37.00000000002348 62.725000000009864 22.857883832483207
  endloop
endfacet
facet normal -1.4436237921161073e-12 -0.6087614290087202 0.7933533402912355
  outer loop
    vertex 37.00000000003367 62.87500000000986 17.257215215702765
    vertex 26.00000000003389 62.725000000009864 17.142116167485906
    vertex 37.000000000033886 62.725000000009864 17.14211616750592
  endloop
endfacet
facet normal -1.4436237921161073e-12 -0.6087614290087202 0.7933533402912355
  outer loop
    vertex 26.00000000003389 62.725000000009864 17.142116167485906
    vertex 37.00000000003367 62.87500000000986 17.257215215702765
    vertex 26.000000000033673 62.87500000000986 17.25721521568275
  endloop
endfacet
facet normal 1.8040804145060032e-12 -0.13052619222005132 -0.9914448613738105
  outer loop
    vertex 26.00000000002288 61.92910284884818 23.187555226728467
    vertex 37.00000000002267 61.075000000009865 23.299999999994558
    vertex 26.000000000022677 61.075000000009865 23.299999999974542
  endloop
endfacet
facet normal 1.8040804145060032e-12 -0.13052619222005132 -0.9914448613738105
  outer loop
    vertex 37.00000000002267 61.075000000009865 23.299999999994558
    vertex 26.00000000002288 61.92910284884818 23.187555226728467
    vertex 37.00000000002287 61.92910284884818 23.187555226748483
  endloop
endfacet
facet normal 1.443623561566409e-12 0.6087614290087244 -0.7933533402912323
  outer loop
    vertex 26.000000000023487 59.42500000000987 22.85788383246319
    vertex 37.000000000024436 58.74154762209427 22.333452377910167
    vertex 26.000000000024436 58.74154762209427 22.33345237789015
  endloop
endfacet
facet normal 1.443623561566409e-12 0.6087614290087244 -0.7933533402912323
  outer loop
    vertex 37.000000000024436 58.74154762209427 22.333452377910167
    vertex 26.000000000023487 59.42500000000987 22.85788383246319
    vertex 37.00000000002348 59.42500000000987 22.857883832483207
  endloop
endfacet
facet normal 6.963479151299533e-13 0.9238795325112865 -0.3826834323650905
  outer loop
    vertex 37.00000000002567 58.217116167521226 21.64999999999456
    vertex 26.000000000027125 57.88744477325595 20.854102848812868
    vertex 26.000000000025675 58.217116167521226 21.649999999974543
  endloop
endfacet
facet normal 6.963479151299533e-13 0.9238795325112865 -0.3826834323650905
  outer loop
    vertex 26.000000000027125 57.88744477325595 20.854102848812868
    vertex 37.00000000002567 58.217116167521226 21.64999999999456
    vertex 37.00000000002713 57.88744477325595 20.854102848832884
  endloop
endfacet
facet normal 1.8040804145060028e-12 0.13052619222005132 -0.9914448613738105
  outer loop
    vertex 26.000000000022677 61.075000000009865 23.299999999974542
    vertex 37.00000000002287 60.22089715117155 23.187555226748483
    vertex 26.00000000002288 60.22089715117155 23.187555226728467
  endloop
endfacet
facet normal 1.8040804145060028e-12 0.13052619222005132 -0.9914448613738105
  outer loop
    vertex 37.00000000002287 60.22089715117155 23.187555226748483
    vertex 26.000000000022677 61.075000000009865 23.299999999974542
    vertex 37.00000000002267 61.075000000009865 23.299999999994558
  endloop
endfacet
facet normal -1.0 1.3072745092891739e-16 -1.819864509862385e-12
  outer loop
    vertex 42.00000000002234 62.00674856237893 23.477332974644302
    vertex 42.00000000002234 60.143251437640785 23.477332974644302
    vertex 42.0000000000221 61.075000000009865 23.600000000003657
  endloop
endfacet
facet normal -1.0 1.3072745092891739e-16 -1.819864509862385e-12
  outer loop
    vertex 42.00000000002234 60.143251437640785 23.477332974644302
    vertex 42.00000000002234 62.00674856237893 23.477332974644302
    vertex 42.000000000023036 62.87500000000986 23.117691453627636
  endloop
endfacet
facet normal -1.0 1.3072745092891739e-16 -1.819864509862385e-12
  outer loop
    vertex 42.00000000002234 60.143251437640785 23.477332974644302
    vertex 42.000000000023036 62.87500000000986 23.117691453627636
    vertex 42.000000000023036 59.27500000000987 23.117691453627636
  endloop
endfacet
facet normal -1.0 1.3072745092891739e-16 -1.819864509862385e-12
  outer loop
    vertex 42.000000000023036 59.27500000000987 23.117691453627636
    vertex 42.000000000023036 62.87500000000986 23.117691453627636
    vertex 42.00000000002404 63.62058441228143 22.545584412275232
  endloop
endfacet
facet normal -1.0 1.3072745092891739e-16 -1.819864509862385e-12
  outer loop
    vertex 42.000000000023036 59.27500000000987 23.117691453627636
    vertex 42.00000000002404 63.62058441228143 22.545584412275232
    vertex 42.00000000002334 59.02500000000986 22.92585970663281
  endloop
endfacet
facet normal -1.0 1.3072745092891739e-16 -1.819864509862385e-12
  outer loop
    vertex 42.00000000002334 59.02500000000986 22.92585970663281
    vertex 42.00000000002404 63.62058441228143 22.545584412275232
    vertex 42.000000000033985 59.02500000000986 17.074140293374356
  endloop
endfacet
facet normal -1.0 1.3072745092891739e-16 -1.819864509862385e-12
  outer loop
    vertex 42.000000000033985 59.02500000000986 17.074140293374356
    vertex 42.00000000002404 63.62058441228143 22.545584412275232
    vertex 42.00000000002544 64.19269145363384 21.800000000003664
  endloop
endfacet
facet normal -1.0 1.3072745092891739e-16 -1.819864509862385e-12
  outer loop
    vertex 42.000000000033985 59.02500000000986 17.074140293374356
    vertex 42.00000000002544 64.19269145363384 21.800000000003664
    vertex 42.00000000002695 64.5523329746505 20.93174856237274
  endloop
endfacet
facet normal -1.0 1.3072745092891739e-16 -1.819864509862385e-12
  outer loop
    vertex 42.000000000033985 59.02500000000986 17.074140293374356
    vertex 42.00000000002695 64.5523329746505 20.93174856237274
    vertex 42.00000000002866 64.67500000000986 20.000000000003663
  endloop
endfacet
facet normal -1.0 1.3072745092891739e-16 -1.819864509862385e-12
  outer loop
    vertex 42.000000000033985 59.02500000000986 17.074140293374356
    vertex 42.00000000002866 64.67500000000986 20.000000000003663
    vertex 42.00000000003037 64.5523329746505 19.06825143763459
  endloop
endfacet
facet normal -1.0 1.3072745092891739e-16 -1.819864509862385e-12
  outer loop
    vertex 42.000000000033985 59.02500000000986 17.074140293374356
    vertex 42.00000000003037 64.5523329746505 19.06825143763459
    vertex 42.000000000031946 64.19269145363384 18.200000000003666
  endloop
endfacet
facet normal -1.0 1.3072745092891739e-16 -1.819864509862385e-12
  outer loop
    vertex 42.000000000033985 59.02500000000986 17.074140293374356
    vertex 42.000000000031946 64.19269145363384 18.200000000003666
    vertex 42.000000000033275 63.62058441228143 17.454415587732093
  endloop
endfacet
facet normal -1.0 1.3072745092891739e-16 -1.819864509862385e-12
  outer loop
    vertex 42.000000000033985 59.02500000000986 17.074140293374356
    vertex 42.000000000033275 63.62058441228143 17.454415587732093
    vertex 42.00000000003434 62.87500000000986 16.88230854637969
  endloop
endfacet
facet normal -1.0 1.3072745092891739e-16 -1.819864509862385e-12
  outer loop
    vertex 42.000000000033985 59.02500000000986 17.074140293374356
    vertex 42.00000000003434 62.87500000000986 16.88230854637969
    vertex 42.00000000003434 59.27500000000987 16.88230854637969
  endloop
endfacet
facet normal -1.0 1.3072745092891739e-16 -1.819864509862385e-12
  outer loop
    vertex 42.00000000003434 59.27500000000987 16.88230854637969
    vertex 42.00000000003434 62.87500000000986 16.88230854637969
    vertex 42.000000000034994 62.006748562378945 16.522667025363024
  endloop
endfacet
facet normal -1.0 1.3072745092891739e-16 -1.819864509862385e-12
  outer loop
    vertex 42.00000000003434 59.27500000000987 16.88230854637969
    vertex 42.000000000034994 62.006748562378945 16.522667025363024
    vertex 42.000000000034994 60.143251437640785 16.522667025363024
  endloop
endfacet
facet normal -1.0 1.3072745092891739e-16 -1.819864509862385e-12
  outer loop
    vertex 42.000000000034994 60.143251437640785 16.522667025363024
    vertex 42.000000000034994 62.006748562378945 16.522667025363024
    vertex 42.00000000003521 61.075000000009865 16.40000000000367
  endloop
endfacet
facet normal 1.8043166372629007e-12 0.1305261922200502 -0.9914448613738107
  outer loop
    vertex 42.000000000034994 62.006748562378945 16.522667025363024
    vertex 92.00000000003521 61.075000000009865 16.400000000094664
    vertex 42.00000000003521 61.075000000009865 16.40000000000367
  endloop
endfacet
facet normal 1.8043166372629007e-12 0.1305261922200502 -0.9914448613738107
  outer loop
    vertex 92.00000000003521 61.075000000009865 16.400000000094664
    vertex 42.000000000034994 62.006748562378945 16.522667025363024
    vertex 92.000000000035 62.006748562378945 16.522667025454016
  endloop
endfacet
facet normal 1.0 -5.496209048931841e-28 1.8202836099799766e-12
  outer loop
    vertex 92.00000000002234 60.143251437640785 23.477332974735297
    vertex 92.00000000002234 62.00674856237893 23.477332974735297
    vertex 92.00000000002213 61.075000000009865 23.600000000094653
  endloop
endfacet
facet normal 1.0 -5.496209048931841e-28 1.8202836099799766e-12
  outer loop
    vertex 92.00000000002234 62.00674856237893 23.477332974735297
    vertex 92.00000000002234 60.143251437640785 23.477332974735297
    vertex 92.00000000002301 59.27500000000987 23.11769145371863
  endloop
endfacet
facet normal 1.0 -5.496209048931841e-28 1.8202836099799766e-12
  outer loop
    vertex 92.00000000002234 62.00674856237893 23.477332974735297
    vertex 92.00000000002301 59.27500000000987 23.11769145371863
    vertex 92.00000000002301 62.87500000000986 23.11769145371863
  endloop
endfacet
facet normal 1.0 -5.496209048931841e-28 1.8202836099799766e-12
  outer loop
    vertex 92.00000000002301 62.87500000000986 23.11769145371863
    vertex 92.00000000002301 59.27500000000987 23.11769145371863
    vertex 92.00000000002335 59.02500000000986 22.925859706723884
  endloop
endfacet
facet normal 1.0 -5.496209048931841e-28 1.8202836099799766e-12
  outer loop
    vertex 92.00000000002301 62.87500000000986 23.11769145371863
    vertex 92.00000000002335 59.02500000000986 22.925859706723884
    vertex 92.00000000002404 63.62058441228143 22.545584412366225
  endloop
endfacet
facet normal 1.0 -5.496209048931841e-28 1.8202836099799766e-12
  outer loop
    vertex 92.00000000002404 63.62058441228143 22.545584412366225
    vertex 92.00000000002335 59.02500000000986 22.925859706723884
    vertex 92.00000000003399 59.02500000000986 17.07414029346543
  endloop
endfacet
facet normal 1.0 -5.496209048931841e-28 1.8202836099799766e-12
  outer loop
    vertex 92.00000000002404 63.62058441228143 22.545584412366225
    vertex 92.00000000003399 59.02500000000986 17.07414029346543
    vertex 92.0000000000254 64.19269145363384 21.800000000094656
  endloop
endfacet
facet normal 1.0 -5.496209048931841e-28 1.8202836099799766e-12
  outer loop
    vertex 92.0000000000254 64.19269145363384 21.800000000094656
    vertex 92.00000000003399 59.02500000000986 17.07414029346543
    vertex 92.00000000002697 64.5523329746505 20.93174856246373
  endloop
endfacet
facet normal 1.0 -5.496209048931841e-28 1.8202836099799766e-12
  outer loop
    vertex 92.00000000002697 64.5523329746505 20.93174856246373
    vertex 92.00000000003399 59.02500000000986 17.07414029346543
    vertex 92.00000000002868 64.67500000000986 20.00000000009466
  endloop
endfacet
facet normal 1.0 -5.496209048931841e-28 1.8202836099799766e-12
  outer loop
    vertex 92.00000000002868 64.67500000000986 20.00000000009466
    vertex 92.00000000003399 59.02500000000986 17.07414029346543
    vertex 92.00000000003037 64.5523329746505 19.068251437725586
  endloop
endfacet
facet normal 1.0 -5.496209048931841e-28 1.8202836099799766e-12
  outer loop
    vertex 92.00000000003037 64.5523329746505 19.068251437725586
    vertex 92.00000000003399 59.02500000000986 17.07414029346543
    vertex 92.00000000003195 64.19269145363384 18.20000000009466
  endloop
endfacet
facet normal 1.0 -5.496209048931841e-28 1.8202836099799766e-12
  outer loop
    vertex 92.00000000003195 64.19269145363384 18.20000000009466
    vertex 92.00000000003399 59.02500000000986 17.07414029346543
    vertex 92.0000000000333 63.62058441228143 17.45441558782309
  endloop
endfacet
facet normal 1.0 -5.496209048931841e-28 1.8202836099799766e-12
  outer loop
    vertex 92.0000000000333 63.62058441228143 17.45441558782309
    vertex 92.00000000003399 59.02500000000986 17.07414029346543
    vertex 92.00000000003435 62.87500000000986 16.882308546470682
  endloop
endfacet
facet normal 1.0 -5.496209048931841e-28 1.8202836099799766e-12
  outer loop
    vertex 92.00000000003435 62.87500000000986 16.882308546470682
    vertex 92.00000000003399 59.02500000000986 17.07414029346543
    vertex 92.00000000003435 59.27500000000987 16.882308546470682
  endloop
endfacet
facet normal 1.0 -5.496209048931841e-28 1.8202836099799766e-12
  outer loop
    vertex 92.00000000003435 62.87500000000986 16.882308546470682
    vertex 92.00000000003435 59.27500000000987 16.882308546470682
    vertex 92.000000000035 60.143251437640785 16.522667025454016
  endloop
endfacet
facet normal 1.0 -5.496209048931841e-28 1.8202836099799766e-12
  outer loop
    vertex 92.00000000003435 62.87500000000986 16.882308546470682
    vertex 92.000000000035 60.143251437640785 16.522667025454016
    vertex 92.000000000035 62.006748562378945 16.522667025454016
  endloop
endfacet
facet normal 1.0 -5.496209048931841e-28 1.8202836099799766e-12
  outer loop
    vertex 92.000000000035 62.006748562378945 16.522667025454016
    vertex 92.000000000035 60.143251437640785 16.522667025454016
    vertex 92.00000000003521 61.075000000009865 16.400000000094664
  endloop
endfacet
facet normal 1.6813554402076584e-12 0.38268343236509134 -0.9238795325112861
  outer loop
    vertex 42.00000000003434 62.87500000000986 16.88230854637969
    vertex 92.000000000035 62.006748562378945 16.522667025454016
    vertex 42.000000000034994 62.006748562378945 16.522667025363024
  endloop
endfacet
facet normal 1.6813554402076584e-12 0.38268343236509134 -0.9238795325112861
  outer loop
    vertex 92.000000000035 62.006748562378945 16.522667025454016
    vertex 42.00000000003434 62.87500000000986 16.88230854637969
    vertex 92.00000000003435 62.87500000000986 16.882308546470682
  endloop
endfacet
facet normal 1.8043166372629007e-12 -0.1305261922200502 -0.9914448613738107
  outer loop
    vertex 42.00000000003521 61.075000000009865 16.40000000000367
    vertex 92.000000000035 60.143251437640785 16.522667025454016
    vertex 42.000000000034994 60.143251437640785 16.522667025363024
  endloop
endfacet
facet normal 1.8043166372629007e-12 -0.1305261922200502 -0.9914448613738107
  outer loop
    vertex 92.000000000035 60.143251437640785 16.522667025454016
    vertex 42.00000000003521 61.075000000009865 16.40000000000367
    vertex 92.00000000003521 61.075000000009865 16.400000000094664
  endloop
endfacet
facet normal -1.4438126484735099e-12 0.6087614290087189 0.7933533402912365
  outer loop
    vertex 92.00000000002404 63.62058441228143 22.545584412366225
    vertex 42.000000000023036 62.87500000000986 23.117691453627636
    vertex 92.00000000002301 62.87500000000986 23.11769145371863
  endloop
endfacet
facet normal -1.4438126484735099e-12 0.6087614290087189 0.7933533402912365
  outer loop
    vertex 42.000000000023036 62.87500000000986 23.117691453627636
    vertex 92.00000000002404 63.62058441228143 22.545584412366225
    vertex 42.00000000002404 63.62058441228143 22.545584412275232
  endloop
endfacet
facet normal 1.6813554402076584e-12 -0.38268343236509134 -0.9238795325112861
  outer loop
    vertex 42.000000000034994 60.143251437640785 16.522667025363024
    vertex 92.00000000003435 59.27500000000987 16.882308546470682
    vertex 42.00000000003434 59.27500000000987 16.88230854637969
  endloop
endfacet
facet normal 1.6813554402076584e-12 -0.38268343236509134 -0.9238795325112861
  outer loop
    vertex 92.00000000003435 59.27500000000987 16.882308546470682
    vertex 42.000000000034994 60.143251437640785 16.522667025363024
    vertex 92.000000000035 60.143251437640785 16.522667025454016
  endloop
endfacet
facet normal -1.1078764107591011e-12 0.7933533402912356 0.6087614290087203
  outer loop
    vertex 92.00000000002404 63.62058441228143 22.545584412366225
    vertex 42.00000000002544 64.19269145363384 21.800000000003664
    vertex 42.00000000002404 63.62058441228143 22.545584412275232
  endloop
endfacet
facet normal -1.1078764107591011e-12 0.7933533402912356 0.6087614290087203
  outer loop
    vertex 42.00000000002544 64.19269145363384 21.800000000003664
    vertex 92.00000000002404 63.62058441228143 22.545584412366225
    vertex 92.0000000000254 64.19269145363384 21.800000000094656
  endloop
endfacet
facet normal -1.8043166372629007e-12 -0.1305261922200502 0.9914448613738107
  outer loop
    vertex 92.00000000002213 61.075000000009865 23.600000000094653
    vertex 42.00000000002234 60.143251437640785 23.477332974644302
    vertex 92.00000000002234 60.143251437640785 23.477332974735297
  endloop
endfacet
facet normal -1.8043166372629007e-12 -0.1305261922200502 0.9914448613738107
  outer loop
    vertex 42.00000000002234 60.143251437640785 23.477332974644302
    vertex 92.00000000002213 61.075000000009865 23.600000000094653
    vertex 42.0000000000221 61.075000000009865 23.600000000003657
  endloop
endfacet
facet normal -6.964402265037875e-13 0.9238795325112891 0.3826834323650841
  outer loop
    vertex 42.00000000002544 64.19269145363384 21.800000000003664
    vertex 92.00000000002697 64.5523329746505 20.93174856246373
    vertex 42.00000000002695 64.5523329746505 20.93174856237274
  endloop
endfacet
facet normal -6.964402265037875e-13 0.9238795325112891 0.3826834323650841
  outer loop
    vertex 92.00000000002697 64.5523329746505 20.93174856246373
    vertex 42.00000000002544 64.19269145363384 21.800000000003664
    vertex 92.0000000000254 64.19269145363384 21.800000000094656
  endloop
endfacet
facet normal -1.8043166372629e-12 0.13052619222005174 0.9914448613738104
  outer loop
    vertex 92.00000000002234 62.00674856237893 23.477332974735297
    vertex 42.0000000000221 61.075000000009865 23.600000000003657
    vertex 92.00000000002213 61.075000000009865 23.600000000094653
  endloop
endfacet
facet normal -1.8043166372629e-12 0.13052619222005174 0.9914448613738104
  outer loop
    vertex 42.0000000000221 61.075000000009865 23.600000000003657
    vertex 92.00000000002234 62.00674856237893 23.477332974735297
    vertex 42.00000000002234 62.00674856237893 23.477332974644302
  endloop
endfacet
facet normal -2.375427917341607e-13 0.9914448613738099 0.13052619222005651
  outer loop
    vertex 92.00000000002697 64.5523329746505 20.93174856246373
    vertex 42.00000000002866 64.67500000000986 20.000000000003663
    vertex 42.00000000002695 64.5523329746505 20.93174856237274
  endloop
endfacet
facet normal -2.375427917341607e-13 0.9914448613738099 0.13052619222005651
  outer loop
    vertex 42.00000000002866 64.67500000000986 20.000000000003663
    vertex 92.00000000002697 64.5523329746505 20.93174856246373
    vertex 92.00000000002868 64.67500000000986 20.00000000009466
  endloop
endfacet
facet normal 1.4444449290293449e-12 -0.6087614290086428 -0.7933533402912948
  outer loop
    vertex 42.00000000003434 59.27500000000987 16.88230854637969
    vertex 92.00000000003399 59.02500000000986 17.07414029346543
    vertex 42.000000000033985 59.02500000000986 17.074140293374356
  endloop
endfacet
facet normal 1.4444449290293449e-12 -0.6087614290086428 -0.7933533402912948
  outer loop
    vertex 92.00000000003399 59.02500000000986 17.07414029346543
    vertex 42.00000000003434 59.27500000000987 16.88230854637969
    vertex 92.00000000003435 59.27500000000987 16.882308546470682
  endloop
endfacet
facet normal -1.6813554402076584e-12 -0.38268343236509134 0.9238795325112861
  outer loop
    vertex 92.00000000002234 60.143251437640785 23.477332974735297
    vertex 42.000000000023036 59.27500000000987 23.117691453627636
    vertex 92.00000000002301 59.27500000000987 23.11769145371863
  endloop
endfacet
facet normal -1.6813554402076584e-12 -0.38268343236509134 0.9238795325112861
  outer loop
    vertex 42.000000000023036 59.27500000000987 23.117691453627636
    vertex 92.00000000002234 60.143251437640785 23.477332974735297
    vertex 42.00000000002234 60.143251437640785 23.477332974644302
  endloop
endfacet
facet normal -1.4444450116653262e-12 -0.6087614290088005 0.7933533402911739
  outer loop
    vertex 92.00000000002301 59.27500000000987 23.11769145371863
    vertex 42.00000000002334 59.02500000000986 22.92585970663281
    vertex 92.00000000002335 59.02500000000986 22.925859706723884
  endloop
endfacet
facet normal -1.4444450116653262e-12 -0.6087614290088005 0.7933533402911739
  outer loop
    vertex 42.00000000002334 59.02500000000986 22.92585970663281
    vertex 92.00000000002301 59.27500000000987 23.11769145371863
    vertex 42.000000000023036 59.27500000000987 23.117691453627636
  endloop
endfacet
facet normal -1.6813554402076616e-12 0.3826834323650871 0.9238795325112878
  outer loop
    vertex 92.00000000002301 62.87500000000986 23.11769145371863
    vertex 42.00000000002234 62.00674856237893 23.477332974644302
    vertex 92.00000000002234 62.00674856237893 23.477332974735297
  endloop
endfacet
facet normal -1.6813554402076616e-12 0.3826834323650871 0.9238795325112878
  outer loop
    vertex 42.00000000002234 62.00674856237893 23.477332974644302
    vertex 92.00000000002301 62.87500000000986 23.11769145371863
    vertex 42.000000000023036 62.87500000000986 23.117691453627636
  endloop
endfacet
facet normal 6.964402265037882e-13 0.9238795325112891 -0.3826834323650841
  outer loop
    vertex 92.00000000003037 64.5523329746505 19.068251437725586
    vertex 42.000000000031946 64.19269145363384 18.200000000003666
    vertex 42.00000000003037 64.5523329746505 19.06825143763459
  endloop
endfacet
facet normal 6.964402265037882e-13 0.9238795325112891 -0.3826834323650841
  outer loop
    vertex 42.000000000031946 64.19269145363384 18.200000000003666
    vertex 92.00000000003037 64.5523329746505 19.068251437725586
    vertex 92.00000000003195 64.19269145363384 18.20000000009466
  endloop
endfacet
facet normal 2.375427917341621e-13 0.9914448613738097 -0.13052619222005687
  outer loop
    vertex 92.00000000002868 64.67500000000986 20.00000000009466
    vertex 42.00000000003037 64.5523329746505 19.06825143763459
    vertex 42.00000000002866 64.67500000000986 20.000000000003663
  endloop
endfacet
facet normal 2.375427917341621e-13 0.9914448613738097 -0.13052619222005687
  outer loop
    vertex 42.00000000003037 64.5523329746505 19.06825143763459
    vertex 92.00000000002868 64.67500000000986 20.00000000009466
    vertex 92.00000000003037 64.5523329746505 19.068251437725586
  endloop
endfacet
facet normal 1.107876410759102e-12 0.7933533402912356 -0.6087614290087203
  outer loop
    vertex 42.000000000031946 64.19269145363384 18.200000000003666
    vertex 92.0000000000333 63.62058441228143 17.45441558782309
    vertex 42.000000000033275 63.62058441228143 17.454415587732093
  endloop
endfacet
facet normal 1.107876410759102e-12 0.7933533402912356 -0.6087614290087203
  outer loop
    vertex 92.0000000000333 63.62058441228143 17.45441558782309
    vertex 42.000000000031946 64.19269145363384 18.200000000003666
    vertex 92.00000000003195 64.19269145363384 18.20000000009466
  endloop
endfacet
facet normal 1.4438126484735074e-12 0.6087614290087207 -0.793353340291235
  outer loop
    vertex 42.000000000033275 63.62058441228143 17.454415587732093
    vertex 92.00000000003435 62.87500000000986 16.882308546470682
    vertex 42.00000000003434 62.87500000000986 16.88230854637969
  endloop
endfacet
facet normal 1.4438126484735074e-12 0.6087614290087207 -0.793353340291235
  outer loop
    vertex 92.00000000003435 62.87500000000986 16.882308546470682
    vertex 42.000000000033275 63.62058441228143 17.454415587732093
    vertex 92.0000000000333 63.62058441228143 17.45441558782309
  endloop
endfacet
facet normal 0.0 -1.0 0.0
  outer loop
    vertex 92.00000000003399 59.02500000000986 17.07414029346543
    vertex 42.00000000002334 59.02500000000986 22.92585970663281
    vertex 42.000000000033985 59.02500000000986 17.074140293374356
  endloop
endfacet
facet normal 0.0 -1.0 0.0
  outer loop
    vertex 42.00000000002334 59.02500000000986 22.92585970663281
    vertex 92.00000000003399 59.02500000000986 17.07414029346543
    vertex 92.00000000002335 59.02500000000986 22.925859706723884
  endloop
endfacet
endsolid DispenserMotorMount
